<svg id="svg" version="1.1" xmlns="http://www.w3.org/2000/svg" xmlns:xlink="http://www.w3.org/1999/xlink" width="400" height="110.49723756906077" viewBox="0, 0, 400,110.49723756906077"><g id="svgg"><path id="path0" d="M52.833 1.647 C 52.833 2.321,52.776 2.476,52.500 2.548 C 52.261 2.611,52.167 2.776,52.167 3.133 C 52.167 3.422,52.062 3.671,51.917 3.727 C 51.745 3.793,51.667 4.061,51.667 4.578 C 51.667 5.138,51.602 5.333,51.417 5.333 C 51.249 5.333,51.167 5.501,51.167 5.839 C 51.167 6.134,51.063 6.384,50.917 6.440 C 50.748 6.504,50.667 6.769,50.667 7.248 C 50.667 7.821,50.601 7.978,50.333 8.048 C 50.062 8.119,50.000 8.276,50.000 8.883 C 50.000 9.394,49.921 9.661,49.750 9.727 C 49.607 9.782,49.500 10.031,49.500 10.310 C 49.500 10.590,49.393 10.839,49.250 10.894 C 49.079 10.959,49.000 11.227,49.000 11.745 C 49.000 12.389,48.951 12.500,48.667 12.500 C 48.407 12.500,48.333 12.611,48.333 13.000 C 48.333 13.333,48.250 13.500,48.083 13.500 C 47.909 13.500,47.833 13.676,47.833 14.083 C 47.833 14.491,47.758 14.667,47.583 14.667 C 47.409 14.667,47.333 14.843,47.333 15.250 C 47.333 15.722,47.270 15.833,47.000 15.833 C 46.741 15.833,46.667 15.944,46.667 16.333 C 46.667 16.667,46.583 16.833,46.417 16.833 C 46.242 16.833,46.167 17.009,46.167 17.417 C 46.167 17.824,46.091 18.000,45.917 18.000 C 45.779 18.000,45.667 18.112,45.667 18.250 C 45.667 18.387,45.562 18.500,45.434 18.500 C 45.180 18.500,45.000 18.850,45.000 19.347 C 45.000 19.523,44.887 19.667,44.750 19.667 C 44.585 19.667,44.500 19.831,44.500 20.149 C 44.500 20.424,44.393 20.672,44.250 20.727 C 44.104 20.783,44.000 21.033,44.000 21.328 C 44.000 21.722,43.927 21.833,43.667 21.833 C 43.483 21.833,43.333 21.937,43.333 22.063 C 43.333 22.189,43.221 22.386,43.083 22.500 C 42.946 22.614,42.833 22.886,42.833 23.104 C 42.833 23.345,42.735 23.500,42.583 23.500 C 42.444 23.500,42.333 23.648,42.333 23.833 C 42.333 24.017,42.227 24.167,42.097 24.167 C 41.966 24.167,41.812 24.385,41.753 24.653 C 41.694 24.920,41.538 25.180,41.406 25.231 C 41.275 25.281,41.167 25.513,41.167 25.745 C 41.167 26.009,41.073 26.167,40.917 26.167 C 40.778 26.167,40.667 26.315,40.667 26.500 C 40.667 26.685,40.556 26.833,40.417 26.833 C 40.250 26.833,40.167 27.000,40.167 27.333 C 40.167 27.671,40.084 27.833,39.911 27.833 C 39.771 27.833,39.608 27.965,39.549 28.125 C 39.490 28.285,39.342 28.477,39.221 28.550 C 39.099 28.623,39.000 28.867,39.000 29.092 C 39.000 29.344,38.904 29.500,38.750 29.500 C 38.575 29.500,38.500 29.676,38.500 30.083 C 38.500 30.556,38.437 30.667,38.167 30.667 C 37.981 30.667,37.833 30.778,37.833 30.917 C 37.833 31.054,37.721 31.167,37.583 31.167 C 37.428 31.167,37.333 31.324,37.333 31.583 C 37.333 31.813,37.260 32.000,37.170 32.000 C 37.080 32.000,36.959 32.188,36.902 32.417 C 36.836 32.677,36.679 32.833,36.482 32.833 C 36.309 32.833,36.167 32.938,36.167 33.066 C 36.167 33.193,36.054 33.341,35.917 33.394 C 35.771 33.450,35.667 33.699,35.667 33.995 C 35.667 34.333,35.584 34.500,35.417 34.500 C 35.279 34.500,35.167 34.596,35.167 34.713 C 35.167 34.830,35.017 35.054,34.833 35.211 C 34.650 35.368,34.500 35.647,34.500 35.832 C 34.500 36.018,34.389 36.167,34.250 36.167 C 34.112 36.167,34.000 36.271,34.000 36.399 C 34.000 36.527,33.888 36.674,33.750 36.727 C 33.604 36.783,33.500 37.033,33.500 37.328 C 33.500 37.722,33.427 37.833,33.167 37.833 C 32.983 37.833,32.833 37.938,32.833 38.066 C 32.833 38.193,32.721 38.341,32.583 38.394 C 32.437 38.450,32.333 38.699,32.333 38.995 C 32.333 39.333,32.251 39.500,32.083 39.500 C 31.946 39.500,31.833 39.604,31.833 39.731 C 31.833 39.857,31.683 40.000,31.500 40.048 C 31.257 40.112,31.167 40.276,31.167 40.651 C 31.167 40.998,31.085 41.167,30.917 41.167 C 30.779 41.167,30.667 41.279,30.667 41.417 C 30.667 41.554,30.554 41.667,30.417 41.667 C 30.242 41.667,30.167 41.843,30.167 42.250 C 30.167 42.657,30.091 42.833,29.917 42.833 C 29.778 42.833,29.667 42.981,29.667 43.165 C 29.667 43.348,29.517 43.591,29.333 43.705 C 29.150 43.820,29.000 44.045,29.000 44.207 C 29.000 44.368,28.887 44.500,28.750 44.500 C 28.613 44.500,28.500 44.604,28.500 44.732 C 28.500 44.860,28.387 45.008,28.250 45.060 C 28.104 45.116,28.000 45.366,28.000 45.661 C 28.000 46.056,27.927 46.167,27.667 46.167 C 27.407 46.167,27.333 46.278,27.333 46.667 C 27.333 47.000,27.250 47.167,27.083 47.167 C 26.944 47.167,26.833 47.315,26.833 47.500 C 26.833 47.685,26.722 47.833,26.583 47.833 C 26.417 47.833,26.333 48.000,26.333 48.333 C 26.333 48.671,26.251 48.833,26.078 48.833 C 25.938 48.833,25.775 48.965,25.716 49.125 C 25.657 49.285,25.509 49.477,25.388 49.550 C 25.266 49.623,25.167 49.867,25.167 50.092 C 25.167 50.344,25.071 50.500,24.917 50.500 C 24.742 50.500,24.667 50.676,24.667 51.083 C 24.667 51.556,24.603 51.667,24.333 51.667 C 24.074 51.667,24.000 51.778,24.000 52.167 C 24.000 52.500,23.917 52.667,23.750 52.667 C 23.611 52.667,23.500 52.815,23.500 53.000 C 23.500 53.185,23.389 53.333,23.250 53.333 C 23.086 53.333,23.000 53.498,23.000 53.814 C 23.000 54.154,22.903 54.320,22.667 54.382 C 22.424 54.445,22.333 54.609,22.333 54.984 C 22.333 55.332,22.252 55.500,22.083 55.500 C 21.919 55.500,21.833 55.665,21.833 55.982 C 21.833 56.257,21.726 56.506,21.583 56.560 C 21.412 56.626,21.333 56.894,21.333 57.411 C 21.333 57.972,21.269 58.167,21.083 58.167 C 20.946 58.167,20.833 58.305,20.833 58.474 C 20.833 58.643,20.683 58.917,20.500 59.083 C 20.293 59.270,20.167 59.597,20.167 59.942 C 20.167 60.327,20.089 60.500,19.917 60.500 C 19.749 60.500,19.667 60.667,19.667 61.005 C 19.667 61.301,19.563 61.550,19.417 61.606 C 19.250 61.670,19.167 61.933,19.167 62.397 C 19.167 62.886,19.068 63.177,18.833 63.378 C 18.559 63.613,18.500 63.870,18.500 64.832 C 18.500 65.759,18.448 66.000,18.250 66.000 C 18.053 66.000,18.000 66.232,18.000 67.089 C 18.000 67.902,17.937 68.201,17.750 68.273 C 17.373 68.418,17.373 78.500,17.750 78.500 C 17.948 78.500,18.000 78.741,18.000 79.667 C 18.000 80.593,18.052 80.833,18.250 80.833 C 18.450 80.833,18.500 81.085,18.500 82.099 C 18.500 83.224,18.537 83.374,18.833 83.452 C 19.109 83.524,19.167 83.679,19.167 84.353 C 19.167 84.965,19.229 85.167,19.417 85.167 C 19.602 85.167,19.667 85.362,19.667 85.922 C 19.667 86.439,19.745 86.707,19.917 86.773 C 20.071 86.832,20.167 87.086,20.167 87.434 C 20.167 87.889,20.232 88.000,20.500 88.000 C 20.685 88.000,20.833 88.111,20.833 88.250 C 20.833 88.444,21.056 88.500,21.833 88.500 C 22.611 88.500,22.833 88.444,22.833 88.250 C 22.833 88.065,23.028 88.000,23.589 88.000 C 24.106 88.000,24.374 87.921,24.440 87.750 C 24.492 87.612,24.672 87.500,24.838 87.500 C 25.502 87.500,25.667 87.315,25.667 86.566 C 25.667 86.026,25.601 85.833,25.417 85.833 C 25.242 85.833,25.167 85.657,25.167 85.250 C 25.167 84.843,25.091 84.667,24.917 84.667 C 24.750 84.667,24.667 84.500,24.667 84.167 C 24.667 83.889,24.519 83.519,24.333 83.333 C 24.148 83.148,24.000 82.778,24.000 82.500 C 24.000 82.184,23.915 82.000,23.768 82.000 C 23.596 82.000,23.520 81.675,23.473 80.742 C 23.438 80.050,23.325 79.431,23.223 79.367 C 23.116 79.300,23.011 78.619,22.977 77.778 C 22.929 76.615,22.855 76.262,22.625 76.093 C 22.232 75.806,22.174 70.333,22.564 70.333 C 22.864 70.333,22.995 69.813,22.998 68.613 C 22.999 67.975,23.086 67.557,23.250 67.393 C 23.411 67.232,23.500 66.820,23.500 66.238 C 23.500 65.545,23.558 65.333,23.750 65.333 C 23.938 65.333,24.000 65.132,24.000 64.519 C 24.000 63.846,24.057 63.691,24.333 63.618 C 24.606 63.547,24.667 63.391,24.667 62.766 C 24.667 62.196,24.731 62.000,24.917 62.000 C 25.083 62.000,25.167 61.833,25.167 61.500 C 25.167 61.167,25.250 61.000,25.417 61.000 C 25.606 61.000,25.667 60.796,25.667 60.167 C 25.667 59.537,25.728 59.333,25.917 59.333 C 26.056 59.333,26.167 59.185,26.167 59.000 C 26.167 58.812,26.278 58.667,26.421 58.667 C 26.569 58.667,26.716 58.461,26.774 58.170 C 26.829 57.897,26.977 57.588,27.103 57.483 C 27.230 57.378,27.333 57.114,27.333 56.896 C 27.333 56.655,27.431 56.500,27.583 56.500 C 27.748 56.500,27.833 56.335,27.833 56.019 C 27.833 55.679,27.931 55.513,28.167 55.452 C 28.409 55.388,28.500 55.224,28.500 54.849 C 28.500 54.502,28.582 54.333,28.750 54.333 C 28.925 54.333,29.000 54.157,29.000 53.750 C 29.000 53.343,29.075 53.167,29.250 53.167 C 29.387 53.167,29.500 53.092,29.500 53.000 C 29.500 52.908,29.650 52.683,29.833 52.500 C 30.017 52.317,30.167 52.017,30.167 51.833 C 30.167 51.648,30.278 51.500,30.417 51.500 C 30.583 51.500,30.667 51.333,30.667 51.000 C 30.667 50.667,30.750 50.500,30.917 50.500 C 31.091 50.500,31.167 50.324,31.167 49.917 C 31.167 49.444,31.230 49.333,31.500 49.333 C 31.685 49.333,31.833 49.222,31.833 49.083 C 31.833 48.946,31.946 48.833,32.083 48.833 C 32.258 48.833,32.333 48.657,32.333 48.250 C 32.333 47.843,32.409 47.667,32.583 47.667 C 32.721 47.667,32.833 47.554,32.833 47.417 C 32.833 47.278,32.981 47.167,33.167 47.167 C 33.355 47.167,33.500 47.056,33.500 46.911 C 33.500 46.771,33.612 46.613,33.750 46.560 C 33.893 46.506,34.000 46.257,34.000 45.982 C 34.000 45.665,34.085 45.500,34.250 45.500 C 34.389 45.500,34.500 45.352,34.500 45.167 C 34.500 44.981,34.611 44.833,34.750 44.833 C 34.917 44.833,35.000 44.667,35.000 44.333 C 35.000 43.944,35.074 43.833,35.333 43.833 C 35.522 43.833,35.667 43.722,35.667 43.578 C 35.667 43.438,35.779 43.280,35.917 43.227 C 36.059 43.172,36.167 42.924,36.167 42.649 C 36.167 42.331,36.252 42.167,36.417 42.167 C 36.554 42.167,36.667 42.035,36.667 41.873 C 36.667 41.712,36.817 41.487,37.000 41.372 C 37.183 41.258,37.333 41.014,37.333 40.832 C 37.333 40.648,37.445 40.500,37.583 40.500 C 37.721 40.500,37.833 40.385,37.833 40.245 C 37.833 40.104,37.946 39.946,38.083 39.894 C 38.226 39.839,38.333 39.590,38.333 39.316 C 38.333 38.944,38.410 38.833,38.667 38.833 C 38.852 38.833,39.000 38.722,39.000 38.583 C 39.000 38.446,39.112 38.333,39.250 38.333 C 39.425 38.333,39.500 38.157,39.500 37.750 C 39.500 37.343,39.575 37.167,39.750 37.167 C 39.887 37.167,40.000 37.054,40.000 36.917 C 40.000 36.779,40.109 36.667,40.242 36.667 C 40.388 36.667,40.529 36.433,40.594 36.083 C 40.657 35.749,40.803 35.500,40.935 35.500 C 41.063 35.500,41.167 35.387,41.167 35.250 C 41.167 35.112,41.279 35.000,41.417 35.000 C 41.581 35.000,41.667 34.835,41.667 34.519 C 41.667 34.179,41.764 34.013,42.000 33.952 C 42.183 33.904,42.333 33.745,42.333 33.599 C 42.333 33.453,42.446 33.333,42.583 33.333 C 42.750 33.333,42.833 33.167,42.833 32.833 C 42.833 32.500,42.917 32.333,43.083 32.333 C 43.221 32.333,43.333 32.192,43.333 32.019 C 43.333 31.846,43.482 31.667,43.667 31.618 C 43.892 31.559,44.000 31.391,44.000 31.099 C 44.000 30.826,44.092 30.667,44.250 30.667 C 44.389 30.667,44.500 30.519,44.500 30.333 C 44.500 30.148,44.611 30.000,44.750 30.000 C 44.917 30.000,45.000 29.833,45.000 29.500 C 45.000 29.167,45.083 29.000,45.250 29.000 C 45.425 29.000,45.500 28.824,45.500 28.417 C 45.500 27.944,45.563 27.833,45.833 27.833 C 46.019 27.833,46.167 27.722,46.167 27.583 C 46.167 27.446,46.279 27.333,46.417 27.333 C 46.591 27.333,46.667 27.157,46.667 26.750 C 46.667 26.343,46.742 26.167,46.917 26.167 C 47.054 26.167,47.167 26.063,47.167 25.936 C 47.167 25.809,47.317 25.666,47.500 25.618 C 47.743 25.555,47.833 25.391,47.833 25.016 C 47.833 24.668,47.915 24.500,48.083 24.500 C 48.250 24.500,48.333 24.333,48.333 24.000 C 48.333 23.667,48.417 23.500,48.583 23.500 C 48.758 23.500,48.833 23.324,48.833 22.917 C 48.833 22.444,48.897 22.333,49.167 22.333 C 49.350 22.333,49.500 22.229,49.500 22.101 C 49.500 21.973,49.612 21.826,49.750 21.773 C 49.896 21.717,50.000 21.467,50.000 21.172 C 50.000 20.834,50.083 20.667,50.250 20.667 C 50.414 20.667,50.500 20.502,50.500 20.186 C 50.500 19.846,50.597 19.680,50.833 19.618 C 51.076 19.555,51.167 19.391,51.167 19.016 C 51.167 18.668,51.248 18.500,51.417 18.500 C 51.591 18.500,51.667 18.324,51.667 17.917 C 51.667 17.509,51.742 17.333,51.917 17.333 C 52.081 17.333,52.167 17.169,52.167 16.853 C 52.167 16.512,52.264 16.347,52.500 16.285 C 52.743 16.222,52.833 16.058,52.833 15.682 C 52.833 15.335,52.915 15.167,53.083 15.167 C 53.221 15.167,53.333 15.019,53.333 14.839 C 53.333 14.615,53.413 14.541,53.583 14.606 C 53.726 14.661,53.833 14.910,53.833 15.184 C 53.833 15.556,53.910 15.667,54.167 15.667 C 54.437 15.667,54.500 15.778,54.500 16.250 C 54.500 16.657,54.575 16.833,54.750 16.833 C 54.917 16.833,55.000 17.001,55.000 17.339 C 55.000 17.634,55.104 17.884,55.250 17.940 C 55.393 17.994,55.500 18.243,55.500 18.518 C 55.500 18.889,55.577 19.000,55.833 19.000 C 56.103 19.000,56.167 19.111,56.167 19.583 C 56.167 19.991,56.242 20.167,56.417 20.167 C 56.583 20.167,56.667 20.333,56.667 20.667 C 56.667 21.000,56.750 21.167,56.917 21.167 C 57.056 21.167,57.167 21.315,57.167 21.500 C 57.167 21.722,57.278 21.833,57.500 21.833 C 57.759 21.833,57.833 21.944,57.833 22.333 C 57.833 22.667,57.917 22.833,58.083 22.833 C 58.258 22.833,58.333 23.009,58.333 23.417 C 58.333 23.824,58.409 24.000,58.583 24.000 C 58.752 24.000,58.833 24.168,58.833 24.516 C 58.833 24.891,58.924 25.055,59.167 25.118 C 59.403 25.180,59.500 25.346,59.500 25.686 C 59.500 26.002,59.586 26.167,59.750 26.167 C 59.889 26.167,60.000 26.315,60.000 26.500 C 60.000 26.685,60.111 26.833,60.250 26.833 C 60.408 26.833,60.500 26.992,60.500 27.266 C 60.500 27.558,60.608 27.726,60.833 27.785 C 61.017 27.833,61.167 27.976,61.167 28.103 C 61.167 28.230,61.279 28.333,61.417 28.333 C 61.591 28.333,61.667 28.509,61.667 28.917 C 61.667 29.324,61.742 29.500,61.917 29.500 C 62.071 29.500,62.167 29.656,62.167 29.908 C 62.167 30.133,62.266 30.377,62.388 30.450 C 62.509 30.523,62.657 30.715,62.716 30.875 C 62.775 31.035,62.938 31.167,63.078 31.167 C 63.218 31.167,63.333 31.279,63.333 31.417 C 63.333 31.554,63.446 31.667,63.583 31.667 C 63.758 31.667,63.833 31.843,63.833 32.250 C 63.833 32.657,63.909 32.833,64.083 32.833 C 64.221 32.833,64.333 32.946,64.333 33.083 C 64.333 33.221,64.483 33.483,64.667 33.667 C 64.850 33.850,65.000 34.112,65.000 34.250 C 65.000 34.387,65.112 34.500,65.250 34.500 C 65.387 34.500,65.500 34.612,65.500 34.750 C 65.500 34.887,65.612 35.000,65.750 35.000 C 65.918 35.000,66.000 35.168,66.000 35.516 C 66.000 35.891,66.091 36.055,66.333 36.118 C 66.517 36.166,66.667 36.309,66.667 36.436 C 66.667 36.563,66.779 36.667,66.917 36.667 C 67.091 36.667,67.167 36.843,67.167 37.250 C 67.167 37.657,67.242 37.833,67.417 37.833 C 67.554 37.833,67.667 37.946,67.667 38.083 C 67.667 38.222,67.815 38.333,68.000 38.333 C 68.260 38.333,68.333 38.444,68.333 38.839 C 68.333 39.134,68.437 39.384,68.583 39.440 C 68.721 39.492,68.833 39.640,68.833 39.768 C 68.833 39.896,68.946 40.000,69.083 40.000 C 69.238 40.000,69.333 40.157,69.333 40.411 C 69.333 40.651,69.472 40.896,69.667 41.000 C 69.863 41.105,70.000 41.349,70.000 41.594 C 70.000 41.823,70.112 42.054,70.250 42.106 C 70.387 42.159,70.500 42.299,70.500 42.417 C 70.500 42.535,70.612 42.674,70.750 42.727 C 70.887 42.780,71.000 42.938,71.000 43.078 C 71.000 43.218,71.103 43.333,71.229 43.333 C 71.355 43.333,71.503 43.558,71.558 43.833 C 71.617 44.127,71.763 44.333,71.912 44.333 C 72.056 44.333,72.167 44.479,72.167 44.667 C 72.167 44.852,72.278 45.000,72.417 45.000 C 72.583 45.000,72.667 45.167,72.667 45.500 C 72.667 45.815,72.752 46.000,72.897 46.000 C 73.024 46.000,73.167 46.150,73.215 46.333 C 73.263 46.517,73.422 46.667,73.568 46.667 C 73.752 46.667,73.833 46.820,73.833 47.167 C 73.833 47.500,73.917 47.667,74.083 47.667 C 74.222 47.667,74.333 47.815,74.333 48.000 C 74.333 48.183,74.436 48.333,74.563 48.333 C 74.689 48.333,74.837 48.558,74.892 48.833 C 74.950 49.127,75.097 49.333,75.246 49.333 C 75.418 49.333,75.500 49.497,75.500 49.839 C 75.500 50.134,75.604 50.384,75.750 50.440 C 75.887 50.492,76.000 50.640,76.000 50.768 C 76.000 50.896,76.112 51.000,76.250 51.000 C 76.387 51.000,76.500 51.144,76.500 51.320 C 76.500 51.816,76.680 52.167,76.934 52.167 C 77.062 52.167,77.167 52.270,77.167 52.396 C 77.167 52.523,77.279 52.719,77.417 52.833 C 77.554 52.947,77.667 53.219,77.667 53.437 C 77.667 53.678,77.765 53.833,77.917 53.833 C 78.083 53.833,78.167 54.000,78.167 54.333 C 78.167 54.722,78.241 54.833,78.500 54.833 C 78.770 54.833,78.833 54.944,78.833 55.417 C 78.833 55.824,78.909 56.000,79.083 56.000 C 79.240 56.000,79.333 56.158,79.333 56.422 C 79.333 56.654,79.446 56.887,79.583 56.940 C 79.728 56.995,79.833 57.245,79.833 57.533 C 79.833 57.891,79.927 58.056,80.167 58.118 C 80.404 58.180,80.500 58.346,80.500 58.691 C 80.500 58.969,80.607 59.218,80.750 59.273 C 80.893 59.328,81.000 59.576,81.000 59.851 C 81.000 60.169,81.085 60.333,81.250 60.333 C 81.435 60.333,81.500 60.528,81.500 61.089 C 81.500 61.606,81.579 61.874,81.750 61.940 C 81.888 61.992,82.000 62.172,82.000 62.338 C 82.000 62.818,82.183 63.167,82.434 63.167 C 82.587 63.167,82.667 63.360,82.667 63.732 C 82.667 64.081,82.762 64.334,82.917 64.394 C 83.079 64.456,83.167 64.714,83.167 65.130 C 83.167 65.482,83.277 65.915,83.411 66.093 C 83.552 66.279,83.658 66.788,83.661 67.292 C 83.665 67.940,83.753 68.253,84.000 68.500 C 84.433 68.933,84.531 78.167,84.103 78.167 C 83.818 78.167,83.672 78.679,83.669 79.688 C 83.668 80.168,83.572 80.538,83.417 80.667 C 83.257 80.799,83.167 81.168,83.167 81.687 C 83.167 82.299,83.105 82.500,82.917 82.500 C 82.728 82.500,82.667 82.704,82.667 83.333 C 82.667 83.935,82.602 84.167,82.434 84.167 C 82.144 84.167,82.000 84.529,82.000 85.264 C 82.000 85.668,81.925 85.833,81.741 85.833 C 81.137 85.833,81.507 87.409,82.125 87.469 C 82.461 87.501,82.667 87.612,82.667 87.761 C 82.667 87.937,82.887 88.000,83.500 88.000 C 84.078 88.000,84.321 88.064,84.292 88.208 C 84.262 88.355,84.584 88.431,85.375 88.466 L 86.500 88.515 86.500 88.025 C 86.500 87.744,86.606 87.495,86.750 87.440 C 86.893 87.385,87.000 87.136,87.000 86.856 C 87.000 86.577,87.107 86.328,87.250 86.273 C 87.420 86.208,87.500 85.942,87.500 85.441 C 87.500 84.846,87.563 84.689,87.833 84.618 C 88.123 84.543,88.167 84.391,88.167 83.453 C 88.167 82.697,88.242 82.312,88.417 82.167 C 88.595 82.019,88.667 81.628,88.667 80.813 C 88.667 79.905,88.719 79.667,88.917 79.667 C 89.124 79.667,89.167 79.349,89.167 77.805 C 89.167 76.333,89.222 75.881,89.433 75.649 C 89.850 75.188,89.872 70.733,89.458 70.428 C 89.218 70.251,89.167 69.949,89.167 68.708 C 89.167 67.523,89.113 67.182,88.917 67.106 C 88.732 67.036,88.667 66.744,88.667 66.000 C 88.667 65.256,88.601 64.964,88.417 64.894 C 88.233 64.823,88.167 64.533,88.167 63.800 C 88.167 62.942,88.120 62.790,87.833 62.715 C 87.557 62.643,87.500 62.488,87.500 61.814 C 87.500 61.202,87.438 61.000,87.250 61.000 C 87.083 61.000,87.000 60.833,87.000 60.495 C 87.000 60.199,86.896 59.950,86.750 59.894 C 86.612 59.841,86.499 59.637,86.498 59.441 C 86.494 58.821,86.303 58.333,86.064 58.333 C 85.918 58.333,85.833 58.147,85.833 57.828 C 85.833 57.533,85.729 57.283,85.583 57.227 C 85.429 57.168,85.333 56.914,85.333 56.566 C 85.333 56.174,85.256 56.000,85.083 56.000 C 84.917 56.000,84.833 55.833,84.833 55.500 C 84.833 55.167,84.750 55.000,84.583 55.000 C 84.446 55.000,84.333 54.856,84.333 54.680 C 84.333 54.184,84.154 53.833,83.899 53.833 C 83.754 53.833,83.667 53.652,83.667 53.351 C 83.667 53.076,83.559 52.828,83.417 52.773 C 83.279 52.720,83.167 52.562,83.167 52.422 C 83.167 52.282,83.054 52.167,82.917 52.167 C 82.748 52.167,82.667 51.998,82.667 51.651 C 82.667 51.276,82.576 51.112,82.333 51.048 C 82.097 50.987,82.000 50.821,82.000 50.481 C 82.000 50.165,81.914 50.000,81.750 50.000 C 81.583 50.000,81.500 49.833,81.500 49.495 C 81.500 49.199,81.396 48.950,81.250 48.894 C 81.112 48.841,81.000 48.693,81.000 48.566 C 81.000 48.438,80.850 48.333,80.667 48.333 C 80.397 48.333,80.333 48.222,80.333 47.750 C 80.333 47.343,80.258 47.167,80.083 47.167 C 79.946 47.167,79.833 47.054,79.833 46.917 C 79.833 46.779,79.721 46.667,79.583 46.667 C 79.415 46.667,79.333 46.498,79.333 46.151 C 79.333 45.776,79.243 45.612,79.000 45.548 C 78.764 45.487,78.667 45.321,78.667 44.981 C 78.667 44.665,78.581 44.500,78.417 44.500 C 78.278 44.500,78.167 44.352,78.167 44.167 C 78.167 43.981,78.056 43.833,77.917 43.833 C 77.779 43.833,77.667 43.721,77.667 43.583 C 77.667 43.446,77.517 43.183,77.333 43.000 C 77.150 42.817,77.000 42.554,77.000 42.417 C 77.000 42.279,76.887 42.167,76.750 42.167 C 76.583 42.167,76.500 42.000,76.500 41.667 C 76.500 41.333,76.417 41.167,76.250 41.167 C 76.112 41.167,76.000 41.047,76.000 40.901 C 76.000 40.755,75.850 40.596,75.667 40.548 C 75.449 40.491,75.333 40.321,75.333 40.059 C 75.333 39.837,75.221 39.613,75.083 39.560 C 74.946 39.508,74.833 39.360,74.833 39.232 C 74.833 39.104,74.721 39.000,74.583 39.000 C 74.444 39.000,74.333 38.852,74.333 38.667 C 74.333 38.481,74.222 38.333,74.083 38.333 C 73.917 38.333,73.833 38.167,73.833 37.833 C 73.833 37.444,73.759 37.333,73.500 37.333 C 73.240 37.333,73.167 37.222,73.167 36.828 C 73.167 36.533,73.063 36.283,72.917 36.227 C 72.779 36.174,72.667 36.027,72.667 35.899 C 72.667 35.771,72.554 35.667,72.417 35.667 C 72.279 35.667,72.167 35.547,72.167 35.401 C 72.167 35.255,72.017 35.096,71.833 35.048 C 71.597 34.987,71.500 34.821,71.500 34.481 C 71.500 34.165,71.414 34.000,71.250 34.000 C 71.083 34.000,71.000 33.833,71.000 33.495 C 71.000 33.199,70.896 32.950,70.750 32.894 C 70.612 32.841,70.500 32.693,70.500 32.566 C 70.500 32.438,70.350 32.333,70.167 32.333 C 69.981 32.333,69.833 32.222,69.833 32.083 C 69.833 31.946,69.721 31.833,69.583 31.833 C 69.409 31.833,69.333 31.657,69.333 31.250 C 69.333 30.843,69.258 30.667,69.083 30.667 C 68.946 30.667,68.833 30.554,68.833 30.417 C 68.833 30.278,68.685 30.167,68.500 30.167 C 68.230 30.167,68.167 30.056,68.167 29.583 C 68.167 29.176,68.091 29.000,67.917 29.000 C 67.779 29.000,67.667 28.855,67.667 28.679 C 67.667 28.502,67.554 28.245,67.417 28.107 C 67.279 27.970,67.167 27.739,67.167 27.595 C 67.167 27.444,67.025 27.333,66.833 27.333 C 66.648 27.333,66.500 27.222,66.500 27.083 C 66.500 26.946,66.387 26.833,66.250 26.833 C 66.075 26.833,66.000 26.657,66.000 26.250 C 66.000 25.843,65.925 25.667,65.750 25.667 C 65.594 25.667,65.500 25.509,65.500 25.245 C 65.500 25.013,65.387 24.780,65.250 24.727 C 65.112 24.674,65.000 24.489,65.000 24.316 C 65.000 24.111,64.883 24.000,64.667 24.000 C 64.407 24.000,64.333 23.889,64.333 23.500 C 64.333 23.167,64.250 23.000,64.083 23.000 C 63.916 23.000,63.833 22.833,63.833 22.495 C 63.833 22.199,63.729 21.950,63.583 21.894 C 63.446 21.841,63.333 21.693,63.333 21.566 C 63.333 21.438,63.183 21.333,63.000 21.333 C 62.730 21.333,62.667 21.222,62.667 20.750 C 62.667 20.343,62.591 20.167,62.417 20.167 C 62.249 20.167,62.167 19.999,62.167 19.661 C 62.167 19.366,62.063 19.116,61.917 19.060 C 61.779 19.008,61.667 18.778,61.667 18.550 C 61.667 18.276,61.554 18.106,61.333 18.048 C 61.149 18.000,61.000 17.821,61.000 17.647 C 61.000 17.475,60.887 17.333,60.750 17.333 C 60.583 17.333,60.500 17.167,60.500 16.833 C 60.500 16.500,60.417 16.333,60.250 16.333 C 60.082 16.333,60.000 16.165,60.000 15.818 C 60.000 15.442,59.909 15.278,59.667 15.215 C 59.431 15.153,59.333 14.988,59.333 14.647 C 59.333 14.331,59.248 14.167,59.083 14.167 C 58.917 14.167,58.833 14.001,58.833 13.672 C 58.833 13.055,58.213 11.833,57.900 11.833 C 57.735 11.833,57.667 11.617,57.667 11.101 C 57.667 10.604,57.586 10.338,57.417 10.273 C 57.271 10.217,57.167 9.967,57.167 9.672 C 57.167 9.334,57.084 9.167,56.917 9.167 C 56.729 9.167,56.667 8.967,56.667 8.373 C 56.667 7.761,56.591 7.533,56.333 7.372 C 56.090 7.220,56.000 6.983,56.000 6.499 C 56.000 6.018,55.930 5.833,55.750 5.833 C 55.561 5.833,55.500 5.630,55.500 5.000 C 55.500 4.370,55.439 4.167,55.250 4.167 C 55.086 4.167,55.000 4.002,55.000 3.687 C 55.000 3.423,54.887 3.114,54.750 3.000 C 54.599 2.874,54.500 2.510,54.500 2.077 C 54.500 0.970,54.397 0.833,53.566 0.833 L 52.833 0.833 52.833 1.647 M108.667 36.417 C 108.667 36.585,108.498 36.667,108.151 36.667 C 107.776 36.667,107.612 36.757,107.548 37.000 C 107.500 37.183,107.357 37.333,107.231 37.333 C 107.104 37.333,107.000 37.437,107.000 37.564 C 107.000 37.691,106.850 37.834,106.667 37.882 C 106.424 37.945,106.333 38.109,106.333 38.484 C 106.333 38.832,106.252 39.000,106.083 39.000 C 105.946 39.000,105.833 39.112,105.833 39.250 C 105.833 39.387,105.721 39.500,105.583 39.500 C 105.417 39.500,105.333 39.667,105.333 40.000 C 105.333 40.338,105.251 40.500,105.078 40.500 C 104.938 40.500,104.775 40.631,104.716 40.792 C 104.657 40.952,104.509 41.143,104.388 41.217 C 104.266 41.290,104.167 41.526,104.167 41.740 C 104.167 41.955,104.054 42.174,103.917 42.227 C 103.771 42.283,103.667 42.533,103.667 42.828 C 103.667 43.222,103.593 43.333,103.333 43.333 C 103.145 43.333,103.000 43.444,103.000 43.589 C 103.000 43.729,102.888 43.887,102.750 43.940 C 102.607 43.994,102.500 44.243,102.500 44.518 C 102.500 44.835,102.415 45.000,102.250 45.000 C 102.112 45.000,102.000 45.075,102.000 45.167 C 102.000 45.258,101.850 45.483,101.667 45.667 C 101.483 45.850,101.333 46.150,101.333 46.333 C 101.333 46.519,101.222 46.667,101.083 46.667 C 100.909 46.667,100.833 46.843,100.833 47.250 C 100.833 47.657,100.758 47.833,100.583 47.833 C 100.446 47.833,100.333 47.946,100.333 48.083 C 100.333 48.221,100.221 48.333,100.083 48.333 C 99.917 48.333,99.833 48.500,99.833 48.833 C 99.833 49.180,99.752 49.333,99.568 49.333 C 99.422 49.333,99.264 49.478,99.218 49.655 C 99.172 49.832,99.029 50.017,98.900 50.067 C 98.772 50.116,98.667 50.338,98.667 50.560 C 98.667 50.783,98.554 51.008,98.417 51.060 C 98.271 51.116,98.167 51.366,98.167 51.661 C 98.167 52.056,98.093 52.167,97.833 52.167 C 97.611 52.167,97.500 52.278,97.500 52.500 C 97.500 52.685,97.389 52.833,97.250 52.833 C 97.083 52.833,97.000 53.000,97.000 53.333 C 97.000 53.667,96.917 53.833,96.750 53.833 C 96.612 53.833,96.500 53.908,96.500 54.000 C 96.500 54.092,96.350 54.317,96.167 54.500 C 95.983 54.683,95.833 54.983,95.833 55.167 C 95.833 55.352,95.722 55.500,95.583 55.500 C 95.417 55.500,95.333 55.667,95.333 56.000 C 95.333 56.333,95.250 56.500,95.083 56.500 C 94.944 56.500,94.833 56.648,94.833 56.833 C 94.833 57.017,94.727 57.167,94.597 57.167 C 94.466 57.167,94.312 57.385,94.253 57.653 C 94.194 57.920,94.038 58.180,93.906 58.231 C 93.771 58.283,93.667 58.542,93.667 58.828 C 93.667 59.166,93.584 59.333,93.417 59.333 C 93.207 59.333,93.167 59.685,93.167 61.500 C 93.167 63.315,93.207 63.667,93.417 63.667 C 93.591 63.667,93.667 63.843,93.667 64.250 C 93.667 64.643,93.744 64.833,93.903 64.833 C 94.034 64.833,94.189 65.053,94.248 65.322 C 94.328 65.690,94.477 65.838,94.844 65.919 C 95.113 65.978,95.333 66.133,95.333 66.263 C 95.333 66.393,95.438 66.500,95.566 66.500 C 95.693 66.500,95.841 66.612,95.894 66.750 C 95.977 66.967,96.940 67.000,103.161 67.000 L 110.333 67.000 110.333 70.333 C 110.333 73.185,110.369 73.667,110.583 73.667 C 110.758 73.667,110.833 73.843,110.833 74.250 C 110.833 74.637,110.911 74.833,111.066 74.833 C 111.193 74.833,111.341 74.946,111.394 75.083 C 111.536 75.454,115.167 75.454,115.167 75.083 C 115.167 74.946,115.279 74.833,115.417 74.833 C 115.556 74.833,115.667 74.685,115.667 74.500 C 115.667 74.278,115.778 74.167,116.000 74.167 C 116.323 74.167,116.333 74.056,116.333 70.583 L 116.333 67.000 118.250 67.000 C 119.843 67.000,120.167 66.958,120.167 66.750 C 120.167 66.612,120.279 66.500,120.417 66.500 C 120.554 66.500,120.667 66.406,120.667 66.290 C 120.667 66.175,120.817 65.987,121.000 65.872 C 121.293 65.689,121.333 65.483,121.333 64.165 C 121.333 62.778,121.309 62.667,121.000 62.667 C 120.730 62.667,120.667 62.556,120.667 62.083 C 120.667 61.696,120.589 61.500,120.434 61.500 C 120.307 61.500,120.159 61.387,120.106 61.250 C 120.029 61.049,119.652 61.000,118.172 61.000 L 116.333 61.000 116.333 50.250 C 116.333 39.611,116.330 39.500,116.000 39.500 C 115.730 39.500,115.667 39.389,115.667 38.917 C 115.667 38.509,115.591 38.333,115.417 38.333 C 115.250 38.333,115.167 38.167,115.167 37.833 C 115.167 37.558,115.092 37.333,115.000 37.333 C 114.908 37.333,114.683 37.183,114.500 37.000 C 114.317 36.817,114.017 36.667,113.833 36.667 C 113.648 36.667,113.500 36.556,113.500 36.417 C 113.500 36.206,113.120 36.167,111.083 36.167 C 109.046 36.167,108.667 36.206,108.667 36.417 M137.333 36.417 C 137.333 36.603,137.137 36.667,136.568 36.667 C 135.942 36.667,135.786 36.728,135.715 37.000 C 135.649 37.250,135.488 37.333,135.064 37.333 C 134.674 37.333,134.500 37.410,134.500 37.583 C 134.500 37.740,134.342 37.833,134.078 37.833 C 133.846 37.833,133.613 37.946,133.560 38.083 C 133.508 38.221,133.353 38.333,133.217 38.333 C 133.080 38.333,132.930 38.483,132.882 38.667 C 132.834 38.850,132.691 39.000,132.564 39.000 C 132.437 39.000,132.333 39.112,132.333 39.250 C 132.333 39.387,132.221 39.500,132.083 39.500 C 131.946 39.500,131.833 39.612,131.833 39.750 C 131.833 39.887,131.718 40.000,131.578 40.000 C 131.438 40.000,131.275 40.131,131.216 40.292 C 131.157 40.452,131.009 40.643,130.888 40.717 C 130.766 40.790,130.667 41.034,130.667 41.258 C 130.667 41.510,130.571 41.667,130.417 41.667 C 130.242 41.667,130.167 41.843,130.167 42.250 C 130.167 42.657,130.091 42.833,129.917 42.833 C 129.752 42.833,129.667 42.998,129.667 43.314 C 129.667 43.654,129.569 43.820,129.333 43.882 C 129.043 43.958,129.000 44.109,129.000 45.068 C 129.000 45.933,128.947 46.167,128.750 46.167 C 128.541 46.167,128.500 46.510,128.500 48.255 C 128.500 49.958,128.546 50.362,128.750 50.440 C 128.887 50.492,129.000 50.640,129.000 50.768 C 129.000 50.896,129.150 51.000,129.333 51.000 C 129.519 51.000,129.667 51.111,129.667 51.250 C 129.667 51.458,129.991 51.500,131.583 51.500 C 133.176 51.500,133.500 51.458,133.500 51.250 C 133.500 51.112,133.612 51.000,133.750 51.000 C 133.887 51.000,134.000 50.887,134.000 50.750 C 134.000 50.612,134.112 50.500,134.250 50.500 C 134.456 50.500,134.500 50.204,134.500 48.833 C 134.500 47.463,134.544 47.167,134.750 47.167 C 134.923 47.167,135.000 46.993,135.000 46.603 C 135.000 46.179,135.083 46.017,135.333 45.952 C 135.559 45.893,135.667 45.724,135.667 45.432 C 135.667 45.159,135.759 45.000,135.917 45.000 C 136.056 45.000,136.167 44.852,136.167 44.667 C 136.167 44.481,136.278 44.333,136.417 44.333 C 136.554 44.333,136.667 44.221,136.667 44.083 C 136.667 43.944,136.815 43.833,137.000 43.833 C 137.185 43.833,137.333 43.722,137.333 43.583 C 137.333 43.446,137.446 43.333,137.583 43.333 C 137.721 43.333,137.833 43.221,137.833 43.083 C 137.833 42.897,138.030 42.833,138.599 42.833 C 139.224 42.833,139.380 42.772,139.452 42.500 C 139.562 42.079,141.833 41.981,141.833 42.397 C 141.833 42.636,142.321 42.827,142.941 42.831 C 143.137 42.832,143.341 42.946,143.394 43.083 C 143.446 43.221,143.604 43.333,143.745 43.333 C 143.885 43.333,144.000 43.446,144.000 43.583 C 144.000 43.721,144.075 43.833,144.167 43.833 C 144.258 43.833,144.633 44.133,145.000 44.500 C 145.367 44.867,145.667 45.242,145.667 45.333 C 145.667 45.425,145.779 45.500,145.917 45.500 C 146.084 45.500,146.167 45.667,146.167 46.005 C 146.167 46.301,146.271 46.550,146.417 46.606 C 146.621 46.685,146.667 47.093,146.667 48.833 C 146.667 50.574,146.621 50.982,146.417 51.060 C 146.273 51.115,146.167 51.364,146.167 51.644 C 146.167 51.923,146.060 52.172,145.917 52.227 C 145.771 52.283,145.667 52.533,145.667 52.828 C 145.667 53.222,145.593 53.333,145.333 53.333 C 145.148 53.333,145.000 53.444,145.000 53.583 C 145.000 53.721,144.887 53.833,144.750 53.833 C 144.612 53.833,144.500 53.946,144.500 54.083 C 144.500 54.252,144.332 54.333,143.984 54.333 C 143.609 54.333,143.445 54.424,143.382 54.667 C 143.311 54.936,143.154 55.000,142.564 55.000 C 142.026 55.000,141.833 55.066,141.833 55.250 C 141.833 55.439,141.630 55.500,141.000 55.500 C 140.370 55.500,140.167 55.561,140.167 55.750 C 140.167 55.939,139.963 56.000,139.333 56.000 C 138.704 56.000,138.500 56.061,138.500 56.250 C 138.500 56.411,138.337 56.501,138.042 56.502 C 137.328 56.506,136.833 56.683,136.833 56.936 C 136.833 57.088,136.636 57.167,136.250 57.167 C 135.843 57.167,135.667 57.242,135.667 57.417 C 135.667 57.584,135.499 57.667,135.161 57.667 C 134.866 57.667,134.616 57.771,134.560 57.917 C 134.508 58.054,134.278 58.167,134.050 58.167 C 133.776 58.167,133.606 58.279,133.548 58.500 C 133.500 58.684,133.321 58.833,133.147 58.833 C 132.975 58.833,132.833 58.946,132.833 59.083 C 132.833 59.241,132.674 59.333,132.401 59.333 C 132.109 59.333,131.941 59.441,131.882 59.667 C 131.834 59.850,131.689 60.000,131.560 60.000 C 131.431 60.000,131.280 60.225,131.225 60.500 C 131.170 60.775,131.022 61.000,130.896 61.000 C 130.770 61.000,130.667 61.112,130.667 61.250 C 130.667 61.387,130.554 61.500,130.417 61.500 C 130.242 61.500,130.167 61.676,130.167 62.083 C 130.167 62.491,130.091 62.667,129.917 62.667 C 129.742 62.667,129.667 62.843,129.667 63.250 C 129.667 63.722,129.603 63.833,129.333 63.833 C 129.051 63.833,129.000 63.944,129.000 64.566 C 129.000 65.063,128.920 65.328,128.750 65.394 C 128.556 65.468,128.500 65.792,128.500 66.828 C 128.500 67.907,128.451 68.167,128.250 68.167 C 128.037 68.167,128.000 68.611,128.000 71.167 C 128.000 73.722,128.037 74.167,128.250 74.167 C 128.389 74.167,128.500 74.315,128.500 74.500 C 128.500 74.685,128.611 74.833,128.750 74.833 C 128.887 74.833,129.000 74.946,129.000 75.084 C 129.000 75.306,130.379 75.331,140.792 75.293 L 152.583 75.250 152.743 74.708 C 152.831 74.410,152.999 74.167,153.118 74.167 C 153.565 74.167,153.400 70.652,152.932 70.208 C 152.714 70.002,152.453 69.833,152.352 69.833 C 152.250 69.833,152.167 69.721,152.167 69.583 C 152.167 69.364,151.033 69.331,143.042 69.314 C 138.023 69.303,134.048 69.260,134.208 69.218 C 134.436 69.159,134.500 68.963,134.500 68.321 C 134.500 67.702,134.562 67.500,134.750 67.500 C 134.912 67.500,135.000 67.338,135.000 67.040 C 135.000 66.761,135.131 66.498,135.333 66.372 C 135.522 66.254,135.667 65.983,135.667 65.749 C 135.667 65.491,135.761 65.333,135.917 65.333 C 136.054 65.333,136.167 65.221,136.167 65.083 C 136.167 64.946,136.279 64.833,136.417 64.833 C 136.554 64.833,136.667 64.721,136.667 64.583 C 136.667 64.446,136.786 64.333,136.932 64.333 C 137.078 64.333,137.237 64.183,137.285 64.000 C 137.347 63.764,137.512 63.667,137.853 63.667 C 138.169 63.667,138.333 63.581,138.333 63.417 C 138.333 63.242,138.509 63.167,138.917 63.167 C 139.324 63.167,139.500 63.091,139.500 62.917 C 139.500 62.748,139.668 62.667,140.016 62.667 C 140.391 62.667,140.555 62.576,140.618 62.333 C 140.693 62.047,140.846 62.000,141.691 62.000 C 142.414 62.000,142.703 61.933,142.773 61.750 C 142.838 61.580,143.105 61.500,143.606 61.500 C 144.108 61.500,144.374 61.420,144.440 61.250 C 144.494 61.107,144.743 61.000,145.018 61.000 C 145.389 61.000,145.500 60.923,145.500 60.667 C 145.500 60.378,145.611 60.333,146.333 60.333 C 146.963 60.333,147.167 60.272,147.167 60.083 C 147.167 59.916,147.334 59.833,147.672 59.833 C 147.967 59.833,148.217 59.729,148.273 59.583 C 148.326 59.446,148.473 59.333,148.601 59.333 C 148.729 59.333,148.833 59.221,148.833 59.083 C 148.833 58.946,148.953 58.833,149.099 58.833 C 149.245 58.833,149.404 58.683,149.452 58.500 C 149.500 58.317,149.643 58.167,149.769 58.167 C 149.896 58.167,150.000 58.054,150.000 57.917 C 150.000 57.779,150.112 57.667,150.250 57.667 C 150.387 57.667,150.500 57.563,150.500 57.436 C 150.500 57.309,150.650 57.166,150.833 57.118 C 151.076 57.055,151.167 56.891,151.167 56.516 C 151.167 56.168,151.248 56.000,151.417 56.000 C 151.591 56.000,151.667 55.824,151.667 55.417 C 151.667 55.009,151.742 54.833,151.917 54.833 C 152.106 54.833,152.167 54.630,152.167 54.000 C 152.167 53.402,152.232 53.167,152.397 53.167 C 152.769 53.167,152.829 52.603,152.829 49.083 C 152.829 45.564,152.769 45.000,152.397 45.000 C 152.232 45.000,152.167 44.765,152.167 44.167 C 152.167 43.537,152.106 43.333,151.917 43.333 C 151.752 43.333,151.667 43.169,151.667 42.851 C 151.667 42.586,151.561 42.329,151.432 42.279 C 151.304 42.230,151.148 41.959,151.086 41.678 C 151.024 41.397,150.867 41.167,150.737 41.167 C 150.607 41.167,150.500 41.052,150.500 40.911 C 150.500 40.771,150.387 40.613,150.250 40.560 C 150.112 40.508,150.000 40.360,150.000 40.232 C 150.000 40.104,149.887 40.000,149.750 40.000 C 149.612 40.000,149.500 39.887,149.500 39.750 C 149.500 39.611,149.352 39.500,149.167 39.500 C 148.981 39.500,148.833 39.389,148.833 39.250 C 148.833 39.112,148.721 39.000,148.583 39.000 C 148.444 39.000,148.333 38.852,148.333 38.667 C 148.333 38.481,148.222 38.333,148.083 38.333 C 147.946 38.333,147.833 38.221,147.833 38.083 C 147.833 37.909,147.657 37.833,147.250 37.833 C 146.843 37.833,146.667 37.758,146.667 37.583 C 146.667 37.409,146.491 37.333,146.083 37.333 C 145.611 37.333,145.500 37.270,145.500 37.000 C 145.500 36.743,145.389 36.667,145.018 36.667 C 144.743 36.667,144.494 36.559,144.440 36.417 C 144.359 36.205,143.801 36.167,140.839 36.167 C 137.834 36.167,137.333 36.202,137.333 36.417 M172.727 36.417 C 172.668 36.569,172.416 36.667,172.079 36.667 C 171.362 36.667,171.000 36.812,171.000 37.101 C 171.000 37.248,170.816 37.333,170.500 37.333 C 170.167 37.333,170.000 37.417,170.000 37.583 C 170.000 37.751,169.833 37.833,169.495 37.833 C 169.199 37.833,168.950 37.937,168.894 38.083 C 168.841 38.221,168.693 38.333,168.566 38.333 C 168.438 38.333,168.333 38.483,168.333 38.667 C 168.333 38.889,168.222 39.000,168.000 39.000 C 167.815 39.000,167.667 39.111,167.667 39.250 C 167.667 39.387,167.554 39.500,167.417 39.500 C 167.279 39.500,167.167 39.612,167.167 39.750 C 167.167 39.887,167.054 40.000,166.917 40.000 C 166.779 40.000,166.667 40.104,166.667 40.231 C 166.667 40.357,166.517 40.500,166.333 40.548 C 166.150 40.596,166.000 40.755,166.000 40.901 C 166.000 41.047,165.887 41.167,165.750 41.167 C 165.612 41.167,165.500 41.271,165.500 41.399 C 165.500 41.527,165.387 41.674,165.250 41.727 C 165.104 41.783,165.000 42.033,165.000 42.328 C 165.000 42.722,164.927 42.833,164.667 42.833 C 164.481 42.833,164.333 42.944,164.333 43.083 C 164.333 43.221,164.221 43.333,164.083 43.333 C 163.909 43.333,163.833 43.509,163.833 43.917 C 163.833 44.324,163.758 44.500,163.583 44.500 C 163.419 44.500,163.333 44.665,163.333 44.981 C 163.333 45.321,163.236 45.487,163.000 45.548 C 162.761 45.611,162.667 45.776,162.667 46.133 C 162.667 46.422,162.562 46.671,162.417 46.727 C 162.245 46.793,162.167 47.061,162.167 47.578 C 162.167 48.138,162.102 48.333,161.917 48.333 C 161.721 48.333,161.667 48.563,161.667 49.399 C 161.667 50.192,161.603 50.489,161.417 50.560 C 161.202 50.643,161.167 51.385,161.167 55.828 C 161.167 60.314,161.200 61.000,161.417 61.000 C 161.613 61.000,161.667 61.231,161.667 62.083 C 161.667 62.935,161.720 63.167,161.917 63.167 C 162.106 63.167,162.167 63.370,162.167 64.000 C 162.167 64.630,162.228 64.833,162.417 64.833 C 162.585 64.833,162.667 65.002,162.667 65.349 C 162.667 65.724,162.757 65.888,163.000 65.952 C 163.236 66.013,163.333 66.179,163.333 66.519 C 163.333 66.835,163.419 67.000,163.583 67.000 C 163.758 67.000,163.833 67.176,163.833 67.583 C 163.833 67.976,163.911 68.167,164.070 68.167 C 164.200 68.167,164.356 68.392,164.417 68.667 C 164.477 68.942,164.633 69.167,164.763 69.167 C 164.893 69.167,165.000 69.317,165.000 69.500 C 165.000 69.685,165.111 69.833,165.250 69.833 C 165.387 69.833,165.500 69.946,165.500 70.083 C 165.500 70.221,165.612 70.333,165.750 70.333 C 165.887 70.333,166.000 70.446,166.000 70.583 C 166.000 70.722,166.148 70.833,166.333 70.833 C 166.556 70.833,166.667 70.944,166.667 71.167 C 166.667 71.352,166.778 71.500,166.917 71.500 C 167.054 71.500,167.167 71.612,167.167 71.750 C 167.167 71.887,167.279 72.000,167.417 72.000 C 167.554 72.000,167.667 72.112,167.667 72.250 C 167.667 72.389,167.815 72.500,168.000 72.500 C 168.222 72.500,168.333 72.611,168.333 72.833 C 168.333 73.019,168.444 73.167,168.583 73.167 C 168.721 73.167,168.833 73.279,168.833 73.417 C 168.833 73.591,169.009 73.667,169.417 73.667 C 169.824 73.667,170.000 73.742,170.000 73.917 C 170.000 74.081,170.165 74.167,170.481 74.167 C 170.821 74.167,170.987 74.264,171.048 74.500 C 171.112 74.743,171.276 74.833,171.651 74.833 C 171.998 74.833,172.167 74.915,172.167 75.083 C 172.167 75.299,172.751 75.333,176.422 75.333 C 180.051 75.333,180.691 75.297,180.773 75.083 C 180.832 74.929,181.086 74.833,181.434 74.833 C 181.889 74.833,182.000 74.768,182.000 74.500 C 182.000 74.230,182.111 74.167,182.583 74.167 C 182.991 74.167,183.167 74.091,183.167 73.917 C 183.167 73.762,183.323 73.667,183.575 73.667 C 183.800 73.667,184.043 73.567,184.117 73.446 C 184.190 73.324,184.381 73.177,184.542 73.118 C 184.702 73.059,184.833 72.896,184.833 72.755 C 184.833 72.615,184.946 72.500,185.083 72.500 C 185.221 72.500,185.333 72.387,185.333 72.250 C 185.333 72.112,185.446 72.000,185.583 72.000 C 185.721 72.000,185.833 71.896,185.833 71.769 C 185.833 71.643,185.983 71.500,186.167 71.452 C 186.350 71.404,186.500 71.245,186.500 71.099 C 186.500 70.953,186.612 70.833,186.750 70.833 C 186.887 70.833,187.000 70.721,187.000 70.583 C 187.000 70.446,187.112 70.333,187.250 70.333 C 187.387 70.333,187.500 70.239,187.500 70.123 C 187.500 70.008,187.650 69.820,187.833 69.705 C 188.022 69.588,188.167 69.317,188.167 69.082 C 188.167 68.824,188.261 68.667,188.417 68.667 C 188.554 68.667,188.667 68.562,188.667 68.434 C 188.667 68.307,188.779 68.159,188.917 68.106 C 189.060 68.051,189.167 67.803,189.167 67.525 C 189.167 67.179,189.263 67.014,189.500 66.952 C 189.743 66.888,189.833 66.724,189.833 66.349 C 189.833 66.002,189.915 65.833,190.083 65.833 C 190.269 65.833,190.333 65.639,190.333 65.083 C 190.333 64.528,190.398 64.333,190.583 64.333 C 190.771 64.333,190.833 64.132,190.833 63.519 C 190.833 62.846,190.891 62.691,191.167 62.618 C 191.465 62.540,191.500 62.391,191.500 61.182 C 191.500 60.094,191.548 59.833,191.750 59.833 C 191.965 59.833,192.000 59.277,192.000 55.828 C 192.000 52.422,191.963 51.809,191.750 51.727 C 191.562 51.655,191.500 51.351,191.500 50.496 C 191.500 49.213,191.401 48.833,191.066 48.833 C 190.898 48.833,190.833 48.601,190.833 48.000 C 190.833 47.370,190.772 47.167,190.583 47.167 C 190.417 47.167,190.333 47.000,190.333 46.667 C 190.333 46.333,190.250 46.167,190.083 46.167 C 189.922 46.167,189.833 46.004,189.831 45.708 C 189.828 44.995,189.650 44.500,189.397 44.500 C 189.270 44.500,189.167 44.350,189.167 44.167 C 189.167 43.981,189.056 43.833,188.917 43.833 C 188.750 43.833,188.667 43.667,188.667 43.333 C 188.667 43.000,188.583 42.833,188.417 42.833 C 188.279 42.833,188.167 42.714,188.167 42.568 C 188.167 42.422,188.017 42.263,187.833 42.215 C 187.597 42.153,187.500 41.988,187.500 41.647 C 187.500 41.331,187.414 41.167,187.250 41.167 C 187.112 41.167,186.999 41.073,186.997 40.958 C 186.994 40.704,186.274 40.000,186.018 40.000 C 185.917 40.000,185.833 39.887,185.833 39.750 C 185.833 39.612,185.721 39.500,185.583 39.500 C 185.446 39.500,185.333 39.387,185.333 39.250 C 185.333 39.112,185.239 39.000,185.123 39.000 C 185.008 39.000,184.820 38.850,184.705 38.667 C 184.588 38.478,184.317 38.333,184.082 38.333 C 183.824 38.333,183.667 38.239,183.667 38.083 C 183.667 37.946,183.562 37.833,183.434 37.833 C 183.307 37.833,183.159 37.721,183.106 37.583 C 183.050 37.437,182.801 37.333,182.505 37.333 C 182.186 37.333,182.000 37.248,182.000 37.103 C 182.000 36.852,181.507 36.673,180.809 36.669 C 180.567 36.668,180.326 36.554,180.273 36.417 C 180.192 36.205,179.615 36.167,176.500 36.167 C 173.385 36.167,172.808 36.205,172.727 36.417 M177.833 42.500 C 178.040 42.706,178.389 42.833,178.750 42.833 C 179.157 42.833,179.333 42.909,179.333 43.083 C 179.333 43.258,179.509 43.333,179.917 43.333 C 180.324 43.333,180.500 43.409,180.500 43.583 C 180.500 43.721,180.612 43.833,180.750 43.833 C 180.887 43.833,181.000 43.946,181.000 44.083 C 181.000 44.221,181.112 44.333,181.250 44.333 C 181.387 44.333,181.500 44.417,181.500 44.518 C 181.500 44.774,182.204 45.494,182.458 45.497 C 182.573 45.499,182.667 45.612,182.667 45.750 C 182.667 45.887,182.779 46.000,182.917 46.000 C 183.084 46.000,183.167 46.167,183.167 46.505 C 183.167 46.801,183.271 47.050,183.417 47.106 C 183.554 47.159,183.667 47.307,183.667 47.434 C 183.667 47.562,183.817 47.667,184.000 47.667 C 184.270 47.667,184.333 47.778,184.333 48.250 C 184.333 48.657,184.409 48.833,184.583 48.833 C 184.769 48.833,184.833 49.028,184.833 49.589 C 184.833 50.106,184.912 50.374,185.083 50.440 C 185.267 50.510,185.333 50.800,185.333 51.533 C 185.333 52.391,185.380 52.543,185.667 52.618 C 186.098 52.731,186.199 58.833,185.769 58.833 C 185.492 58.833,185.339 59.341,185.336 60.274 C 185.334 60.732,185.249 60.997,185.083 61.060 C 184.912 61.126,184.833 61.394,184.833 61.911 C 184.833 62.472,184.769 62.667,184.583 62.667 C 184.409 62.667,184.333 62.843,184.333 63.250 C 184.333 63.722,184.270 63.833,184.000 63.833 C 183.741 63.833,183.667 63.944,183.667 64.333 C 183.667 64.667,183.583 64.833,183.417 64.833 C 183.279 64.833,183.167 64.938,183.167 65.066 C 183.167 65.193,183.054 65.341,182.917 65.394 C 182.779 65.446,182.667 65.604,182.667 65.745 C 182.667 65.885,182.554 66.000,182.417 66.000 C 182.279 66.000,182.167 66.112,182.167 66.250 C 182.167 66.387,182.059 66.500,181.928 66.500 C 181.797 66.500,181.642 66.650,181.583 66.833 C 181.525 67.017,181.370 67.167,181.239 67.167 C 181.107 67.167,181.000 67.279,181.000 67.417 C 181.000 67.554,180.887 67.667,180.750 67.667 C 180.612 67.667,180.500 67.779,180.500 67.917 C 180.500 68.084,180.333 68.167,179.995 68.167 C 179.699 68.167,179.450 68.271,179.394 68.417 C 179.341 68.554,179.162 68.667,178.996 68.667 C 178.516 68.667,178.167 68.850,178.167 69.101 C 178.167 69.284,177.813 69.333,176.500 69.333 C 175.192 69.333,174.833 69.284,174.833 69.103 C 174.833 68.850,174.339 68.672,173.625 68.669 C 173.330 68.667,173.167 68.578,173.167 68.417 C 173.167 68.279,173.062 68.167,172.934 68.167 C 172.807 68.167,172.659 68.054,172.606 67.917 C 172.550 67.771,172.301 67.667,172.005 67.667 C 171.611 67.667,171.500 67.593,171.500 67.333 C 171.500 67.148,171.389 67.000,171.250 67.000 C 171.112 67.000,171.000 66.887,171.000 66.750 C 171.000 66.612,170.893 66.500,170.763 66.500 C 170.633 66.500,170.478 66.281,170.420 66.014 C 170.361 65.747,170.205 65.486,170.073 65.436 C 169.941 65.385,169.833 65.229,169.833 65.089 C 169.833 64.948,169.721 64.833,169.583 64.833 C 169.427 64.833,169.333 64.675,169.333 64.411 C 169.333 64.179,169.221 63.946,169.083 63.894 C 168.946 63.841,168.833 63.686,168.833 63.550 C 168.833 63.414,168.683 63.263,168.500 63.215 C 168.224 63.143,168.167 62.988,168.167 62.314 C 168.167 61.702,168.105 61.500,167.917 61.500 C 167.731 61.500,167.667 61.305,167.667 60.745 C 167.667 60.227,167.588 59.959,167.417 59.894 C 167.204 59.812,167.167 59.183,167.167 55.649 C 167.167 52.072,167.201 51.500,167.417 51.500 C 167.601 51.500,167.667 51.308,167.667 50.768 C 167.667 50.271,167.747 50.005,167.917 49.940 C 168.063 49.884,168.167 49.634,168.167 49.339 C 168.167 49.008,168.250 48.833,168.409 48.833 C 168.554 48.833,168.695 48.599,168.761 48.250 C 168.824 47.916,168.969 47.667,169.102 47.667 C 169.248 47.667,169.333 47.482,169.333 47.167 C 169.333 46.833,169.417 46.667,169.583 46.667 C 169.722 46.667,169.833 46.519,169.833 46.333 C 169.833 46.150,169.917 46.000,170.020 46.000 C 170.122 46.000,170.497 45.709,170.853 45.353 C 171.209 44.997,171.500 44.622,171.500 44.520 C 171.500 44.417,171.612 44.333,171.750 44.333 C 171.887 44.333,172.000 44.221,172.000 44.083 C 172.000 43.944,172.148 43.833,172.333 43.833 C 172.519 43.833,172.667 43.722,172.667 43.583 C 172.667 43.427,172.825 43.333,173.089 43.333 C 173.321 43.333,173.554 43.221,173.606 43.083 C 173.666 42.929,173.919 42.833,174.268 42.833 C 174.722 42.833,174.833 42.768,174.833 42.500 C 174.833 42.194,174.944 42.167,176.167 42.167 C 177.278 42.167,177.556 42.222,177.833 42.500 M110.333 52.417 L 110.333 61.000 105.000 61.000 C 99.778 61.000,99.667 60.993,99.667 60.667 C 99.667 60.444,99.778 60.333,100.000 60.333 C 100.183 60.333,100.333 60.229,100.333 60.101 C 100.333 59.973,100.446 59.826,100.583 59.773 C 100.721 59.720,100.833 59.487,100.833 59.255 C 100.833 58.991,100.927 58.833,101.083 58.833 C 101.258 58.833,101.333 58.657,101.333 58.250 C 101.333 57.778,101.397 57.667,101.667 57.667 C 101.855 57.667,102.000 57.556,102.000 57.411 C 102.000 57.271,102.112 57.113,102.250 57.060 C 102.393 57.006,102.500 56.757,102.500 56.482 C 102.500 56.165,102.585 56.000,102.750 56.000 C 102.889 56.000,103.000 55.852,103.000 55.667 C 103.000 55.479,103.111 55.333,103.254 55.333 C 103.403 55.333,103.550 55.127,103.608 54.833 C 103.663 54.558,103.811 54.333,103.938 54.333 C 104.088 54.333,104.167 54.134,104.167 53.750 C 104.167 53.343,104.242 53.167,104.417 53.167 C 104.554 53.167,104.667 53.054,104.667 52.917 C 104.667 52.779,104.779 52.667,104.917 52.667 C 105.091 52.667,105.167 52.491,105.167 52.083 C 105.167 51.611,105.230 51.500,105.500 51.500 C 105.683 51.500,105.833 51.396,105.833 51.268 C 105.833 51.140,105.946 50.992,106.083 50.940 C 106.221 50.887,106.333 50.654,106.333 50.422 C 106.333 50.158,106.427 50.000,106.583 50.000 C 106.758 50.000,106.833 49.824,106.833 49.417 C 106.833 48.944,106.897 48.833,107.167 48.833 C 107.350 48.833,107.500 48.729,107.500 48.601 C 107.500 48.473,107.612 48.326,107.750 48.273 C 107.896 48.217,108.000 47.967,108.000 47.672 C 108.000 47.334,108.083 47.167,108.250 47.167 C 108.388 47.167,108.500 47.071,108.500 46.954 C 108.500 46.837,108.650 46.612,108.833 46.455 C 109.017 46.298,109.167 46.019,109.167 45.835 C 109.167 45.648,109.277 45.500,109.417 45.500 C 109.591 45.500,109.667 45.324,109.667 44.917 C 109.667 44.509,109.742 44.333,109.917 44.333 C 110.054 44.333,110.167 44.221,110.167 44.083 C 110.167 43.946,110.204 43.833,110.250 43.833 C 110.296 43.833,110.333 47.696,110.333 52.417 " stroke="none" fill="#049cb4" fill-rule="evenodd"></path><path id="path1" d="M200.833 36.403 C 200.833 36.534,200.608 36.690,200.333 36.750 C 199.872 36.851,199.833 36.916,199.833 37.577 C 199.833 38.154,199.768 38.311,199.500 38.382 C 199.169 38.468,199.167 38.609,199.167 56.000 C 199.167 73.391,199.169 73.532,199.500 73.618 C 199.737 73.680,199.833 73.846,199.833 74.191 C 199.833 74.469,199.940 74.718,200.083 74.773 C 200.221 74.826,200.333 74.973,200.333 75.101 C 200.333 75.286,200.721 75.333,202.236 75.333 C 204.494 75.333,204.667 75.285,204.667 74.649 C 204.667 74.331,204.752 74.167,204.917 74.167 C 205.135 74.167,205.167 73.204,205.167 66.500 L 205.167 58.833 215.167 58.833 L 225.167 58.833 225.167 66.250 C 225.167 72.731,225.198 73.667,225.417 73.667 C 225.585 73.667,225.667 73.835,225.667 74.182 C 225.667 74.558,225.757 74.722,226.000 74.785 C 226.183 74.833,226.333 74.976,226.333 75.103 C 226.333 75.456,229.971 75.437,230.106 75.083 C 230.159 74.946,230.307 74.833,230.434 74.833 C 230.562 74.833,230.667 74.683,230.667 74.500 C 230.667 74.315,230.778 74.167,230.917 74.167 C 231.137 74.167,231.167 72.009,231.167 55.750 C 231.167 39.491,231.137 37.333,230.917 37.333 C 230.779 37.333,230.667 37.250,230.667 37.148 C 230.667 36.208,226.618 35.595,226.382 36.500 C 226.334 36.683,226.197 36.833,226.077 36.833 C 225.958 36.833,225.810 37.058,225.750 37.333 C 225.690 37.608,225.534 37.833,225.403 37.833 C 225.202 37.833,225.167 38.953,225.167 45.250 L 225.167 52.667 215.167 52.667 L 205.167 52.667 205.167 45.000 C 205.167 38.296,205.135 37.333,204.917 37.333 C 204.778 37.333,204.667 37.185,204.667 37.000 C 204.667 36.815,204.556 36.667,204.417 36.667 C 204.279 36.667,204.167 36.554,204.167 36.417 C 204.167 36.211,203.870 36.167,202.500 36.167 C 201.171 36.167,200.833 36.215,200.833 36.403 M316.382 36.500 C 316.334 36.683,316.191 36.833,316.064 36.833 C 315.926 36.833,315.833 37.010,315.833 37.273 C 315.833 37.515,315.702 37.809,315.542 37.927 C 315.268 38.127,315.247 39.191,315.203 55.528 C 315.156 73.332,315.163 73.667,315.587 73.667 C 315.744 73.667,315.834 73.833,315.836 74.125 C 315.842 75.062,316.415 75.333,318.385 75.333 C 320.486 75.333,320.667 75.279,320.667 74.649 C 320.667 74.278,320.743 74.167,321.000 74.167 C 321.527 74.167,321.527 37.519,321.000 37.382 C 320.816 37.333,320.667 37.154,320.667 36.981 C 320.667 36.808,320.554 36.667,320.417 36.667 C 320.279 36.667,320.167 36.554,320.167 36.417 C 320.167 35.975,316.498 36.056,316.382 36.500 M332.833 36.403 C 332.833 36.534,332.608 36.690,332.333 36.750 C 331.872 36.851,331.833 36.916,331.833 37.577 C 331.833 38.154,331.768 38.311,331.500 38.382 C 331.170 38.468,331.167 38.609,331.167 50.750 C 331.167 62.891,331.170 63.032,331.500 63.118 C 331.805 63.198,331.833 63.346,331.833 64.853 C 331.833 66.206,331.878 66.500,332.083 66.500 C 332.269 66.500,332.333 66.695,332.333 67.255 C 332.333 67.759,332.413 68.041,332.573 68.102 C 332.705 68.153,332.861 68.413,332.920 68.681 C 332.978 68.948,333.133 69.167,333.263 69.167 C 333.393 69.167,333.500 69.317,333.500 69.500 C 333.500 69.685,333.611 69.833,333.750 69.833 C 333.898 69.833,334.000 69.986,334.000 70.209 C 334.000 70.426,334.247 70.812,334.583 71.121 C 334.904 71.415,335.167 71.734,335.167 71.828 C 335.167 71.923,335.279 72.000,335.417 72.000 C 335.554 72.000,335.667 72.112,335.667 72.250 C 335.667 72.387,335.753 72.500,335.858 72.500 C 335.963 72.500,336.305 72.762,336.616 73.083 C 336.928 73.404,337.329 73.667,337.508 73.667 C 337.687 73.667,337.833 73.779,337.833 73.917 C 337.833 74.090,338.007 74.167,338.397 74.167 C 338.821 74.167,338.983 74.250,339.048 74.500 C 339.108 74.728,339.276 74.833,339.580 74.833 C 339.824 74.833,340.136 74.946,340.274 75.083 C 340.482 75.292,341.188 75.333,344.500 75.333 C 347.812 75.333,348.518 75.292,348.726 75.083 C 348.864 74.946,349.176 74.833,349.420 74.833 C 349.724 74.833,349.892 74.728,349.952 74.500 C 350.014 74.263,350.179 74.167,350.525 74.167 C 350.803 74.167,351.051 74.060,351.106 73.917 C 351.159 73.779,351.343 73.667,351.515 73.667 C 351.687 73.667,352.098 73.404,352.428 73.083 C 352.758 72.763,353.097 72.500,353.181 72.500 C 353.265 72.500,353.333 72.387,353.333 72.250 C 353.333 72.112,353.446 72.000,353.583 72.000 C 353.721 72.000,353.833 71.896,353.833 71.769 C 353.833 71.643,353.983 71.500,354.167 71.452 C 354.350 71.404,354.500 71.245,354.500 71.099 C 354.500 70.953,354.613 70.833,354.750 70.833 C 354.887 70.833,355.000 70.729,355.000 70.601 C 355.000 70.473,355.113 70.326,355.250 70.273 C 355.396 70.217,355.500 69.967,355.500 69.672 C 355.500 69.334,355.583 69.167,355.750 69.167 C 355.955 69.167,356.000 68.880,356.000 67.583 C 356.000 66.287,355.955 66.000,355.750 66.000 C 355.583 66.000,355.500 65.833,355.500 65.496 C 355.500 65.071,355.423 64.976,355.011 64.894 C 354.742 64.840,354.481 64.692,354.433 64.565 C 354.305 64.233,351.667 64.231,351.667 64.563 C 351.667 64.689,351.442 64.837,351.167 64.892 C 350.743 64.976,350.667 65.069,350.667 65.496 C 350.667 65.889,350.593 66.000,350.333 66.000 C 350.150 66.000,350.000 66.104,350.000 66.232 C 350.000 66.360,349.887 66.508,349.750 66.560 C 349.613 66.613,349.500 66.771,349.500 66.911 C 349.500 67.052,349.387 67.167,349.250 67.167 C 349.113 67.167,349.000 67.279,349.000 67.417 C 349.000 67.556,348.852 67.667,348.667 67.667 C 348.481 67.667,348.333 67.778,348.333 67.917 C 348.333 68.054,348.221 68.167,348.083 68.167 C 347.946 68.167,347.833 68.269,347.833 68.395 C 347.833 68.537,347.568 68.658,347.131 68.717 C 346.744 68.769,346.342 68.929,346.237 69.072 C 345.970 69.438,342.870 69.456,342.731 69.094 C 342.680 68.962,342.426 68.807,342.167 68.750 C 341.907 68.693,341.653 68.538,341.602 68.406 C 341.552 68.275,341.329 68.167,341.106 68.167 C 340.884 68.167,340.659 68.054,340.606 67.917 C 340.554 67.779,340.396 67.667,340.255 67.667 C 340.115 67.667,340.000 67.552,340.000 67.411 C 340.000 67.271,339.887 67.113,339.750 67.060 C 339.612 67.008,339.500 66.860,339.500 66.732 C 339.500 66.604,339.387 66.500,339.250 66.500 C 339.112 66.500,339.000 66.387,339.000 66.250 C 339.000 66.111,338.852 66.000,338.667 66.000 C 338.397 66.000,338.333 65.889,338.333 65.417 C 338.333 65.009,338.258 64.833,338.083 64.833 C 337.889 64.833,337.833 64.611,337.833 63.828 C 337.833 63.088,337.767 62.798,337.583 62.727 C 337.367 62.644,337.333 61.776,337.333 56.316 L 337.333 50.000 345.320 50.000 C 353.417 50.000,353.833 49.979,353.833 49.566 C 353.833 49.438,353.983 49.333,354.167 49.333 C 354.350 49.333,354.500 49.229,354.500 49.101 C 354.500 48.973,354.613 48.826,354.750 48.773 C 354.951 48.696,355.000 48.319,355.000 46.839 C 355.000 45.315,354.957 45.000,354.750 45.000 C 354.613 45.000,354.500 44.887,354.500 44.750 C 354.500 44.611,354.352 44.500,354.167 44.500 C 353.944 44.500,353.833 44.389,353.833 44.167 C 353.833 43.838,353.722 43.833,345.583 43.833 L 337.333 43.833 337.333 40.583 C 337.333 37.444,337.322 37.333,337.000 37.333 C 336.778 37.333,336.667 37.222,336.667 37.000 C 336.667 36.815,336.556 36.667,336.417 36.667 C 336.279 36.667,336.167 36.554,336.167 36.417 C 336.167 36.211,335.870 36.167,334.500 36.167 C 333.171 36.167,332.833 36.215,332.833 36.403 M364.394 36.417 C 364.341 36.554,364.193 36.667,364.066 36.667 C 363.938 36.667,363.833 36.817,363.833 37.000 C 363.833 37.185,363.722 37.333,363.583 37.333 C 363.363 37.333,363.333 39.508,363.333 55.908 L 363.333 74.483 363.727 74.908 C 364.328 75.556,368.167 75.548,368.167 74.899 C 368.167 74.771,368.270 74.667,368.397 74.667 C 368.798 74.667,368.829 74.083,368.831 66.370 C 368.833 59.817,368.866 58.810,369.083 58.727 C 369.269 58.656,369.333 58.359,369.333 57.566 C 369.333 56.730,369.387 56.500,369.583 56.500 C 369.758 56.500,369.833 56.324,369.833 55.917 C 369.833 55.524,369.911 55.333,370.070 55.333 C 370.200 55.333,370.356 55.108,370.417 54.833 C 370.477 54.558,370.633 54.333,370.763 54.333 C 370.893 54.333,371.000 54.218,371.000 54.078 C 371.000 53.938,371.113 53.780,371.250 53.727 C 371.393 53.672,371.500 53.424,371.500 53.149 C 371.500 52.778,371.577 52.667,371.833 52.667 C 372.017 52.667,372.167 52.564,372.167 52.438 C 372.167 52.311,372.392 52.163,372.667 52.108 C 372.960 52.050,373.167 51.903,373.167 51.754 C 373.167 51.614,373.282 51.500,373.422 51.500 C 373.562 51.500,373.720 51.387,373.773 51.250 C 373.828 51.107,374.076 51.000,374.351 51.000 C 374.669 51.000,374.833 50.915,374.833 50.750 C 374.833 50.565,375.028 50.500,375.589 50.500 C 376.106 50.500,376.374 50.421,376.440 50.250 C 376.516 50.051,376.871 50.000,378.167 50.000 C 379.463 50.000,379.817 50.051,379.894 50.250 C 379.959 50.420,380.225 50.500,380.727 50.500 C 381.229 50.500,381.495 50.580,381.560 50.750 C 381.616 50.896,381.866 51.000,382.161 51.000 C 382.499 51.000,382.667 51.083,382.667 51.250 C 382.667 51.387,382.761 51.500,382.877 51.500 C 382.992 51.500,383.180 51.650,383.295 51.833 C 383.412 52.022,383.683 52.167,383.918 52.167 C 384.176 52.167,384.333 52.261,384.333 52.417 C 384.333 52.554,384.446 52.667,384.583 52.667 C 384.724 52.667,384.833 52.816,384.833 53.007 C 384.833 53.425,385.483 54.333,385.781 54.333 C 385.913 54.333,386.000 54.532,386.000 54.833 C 386.000 55.167,386.083 55.333,386.250 55.333 C 386.425 55.333,386.500 55.509,386.500 55.917 C 386.500 56.324,386.575 56.500,386.750 56.500 C 386.942 56.500,387.000 56.713,387.000 57.418 C 387.000 58.130,387.075 58.401,387.333 58.622 C 387.658 58.900,387.667 59.114,387.667 66.787 C 387.667 73.011,387.711 74.667,387.877 74.667 C 387.992 74.667,388.180 74.817,388.295 75.000 C 388.483 75.301,388.683 75.333,390.362 75.333 L 392.220 75.333 392.693 74.803 C 393.014 74.445,393.167 74.093,393.167 73.715 C 393.167 73.372,393.263 73.119,393.417 73.060 C 393.633 72.977,393.667 72.034,393.667 65.977 C 393.667 59.920,393.633 58.977,393.417 58.894 C 393.215 58.816,393.167 58.440,393.167 56.967 C 393.167 55.276,393.141 55.129,392.833 55.048 C 392.557 54.976,392.500 54.821,392.500 54.147 C 392.500 53.535,392.438 53.333,392.250 53.333 C 392.075 53.333,392.000 53.157,392.000 52.750 C 392.000 52.343,391.925 52.167,391.750 52.167 C 391.582 52.167,391.500 51.998,391.500 51.651 C 391.500 51.276,391.409 51.112,391.167 51.048 C 390.931 50.987,390.833 50.821,390.833 50.481 C 390.833 50.165,390.748 50.000,390.583 50.000 C 390.446 50.000,390.333 49.917,390.333 49.815 C 390.333 49.559,389.629 48.840,389.375 48.836 C 389.260 48.835,389.167 48.721,389.167 48.583 C 389.167 48.446,389.054 48.333,388.917 48.333 C 388.779 48.333,388.667 48.221,388.667 48.083 C 388.667 47.946,388.554 47.833,388.417 47.833 C 388.278 47.833,388.167 47.685,388.167 47.500 C 388.167 47.278,388.056 47.167,387.833 47.167 C 387.648 47.167,387.500 47.056,387.500 46.917 C 387.500 46.779,387.387 46.667,387.250 46.667 C 387.113 46.667,387.000 46.554,387.000 46.417 C 387.000 46.242,386.824 46.167,386.417 46.167 C 385.944 46.167,385.833 46.103,385.833 45.833 C 385.833 45.650,385.729 45.500,385.601 45.500 C 385.473 45.500,385.326 45.387,385.273 45.250 C 385.217 45.104,384.967 45.000,384.672 45.000 C 384.334 45.000,384.167 44.917,384.167 44.750 C 384.167 44.554,383.937 44.500,383.103 44.500 C 382.179 44.500,382.027 44.456,381.952 44.167 C 381.868 43.846,381.724 43.833,378.167 43.833 C 374.609 43.833,374.465 43.846,374.382 44.167 C 374.309 44.443,374.154 44.500,373.481 44.500 C 372.868 44.500,372.667 44.562,372.667 44.750 C 372.667 44.929,372.484 45.000,372.020 45.000 C 371.649 45.000,371.286 45.106,371.167 45.250 C 371.053 45.387,370.856 45.500,370.730 45.500 C 370.603 45.500,370.500 45.650,370.500 45.833 C 370.500 46.103,370.389 46.167,369.917 46.167 C 369.509 46.167,369.333 46.242,369.333 46.417 C 369.333 46.554,369.221 46.667,369.083 46.667 C 368.867 46.667,368.833 46.037,368.833 42.000 C 368.833 37.444,368.825 37.333,368.500 37.333 C 368.278 37.333,368.167 37.222,368.167 37.000 C 368.167 36.815,368.056 36.667,367.917 36.667 C 367.779 36.667,367.667 36.554,367.667 36.417 C 367.667 36.212,367.379 36.167,366.078 36.167 C 364.820 36.167,364.470 36.219,364.394 36.417 M52.944 43.444 C 52.883 43.506,52.833 43.759,52.833 44.008 C 52.833 44.321,52.730 44.488,52.500 44.548 C 52.279 44.606,52.167 44.776,52.167 45.050 C 52.167 45.278,52.054 45.508,51.917 45.560 C 51.771 45.616,51.667 45.866,51.667 46.161 C 51.667 46.499,51.584 46.667,51.417 46.667 C 51.242 46.667,51.167 46.843,51.167 47.250 C 51.167 47.657,51.091 47.833,50.917 47.833 C 50.755 47.833,50.667 47.996,50.667 48.293 C 50.667 48.573,50.536 48.835,50.333 48.961 C 50.093 49.111,50.000 49.350,50.000 49.817 C 50.000 50.239,49.913 50.498,49.750 50.560 C 49.579 50.626,49.500 50.894,49.500 51.411 C 49.500 51.972,49.435 52.167,49.250 52.167 C 49.077 52.167,49.000 52.340,49.000 52.731 C 49.000 53.154,48.917 53.316,48.667 53.382 C 48.396 53.452,48.333 53.609,48.333 54.217 C 48.333 54.728,48.254 54.995,48.083 55.060 C 47.913 55.126,47.833 55.392,47.833 55.894 C 47.833 56.395,47.753 56.662,47.583 56.727 C 47.393 56.800,47.333 57.109,47.333 58.018 C 47.333 58.954,47.271 59.259,47.048 59.422 C 46.837 59.576,46.745 59.948,46.694 60.857 C 46.656 61.531,46.522 62.231,46.396 62.412 C 46.227 62.655,46.167 63.380,46.167 65.186 C 46.167 67.206,46.123 67.648,45.917 67.727 C 45.720 67.802,45.667 68.143,45.667 69.316 C 45.667 70.421,45.732 70.875,45.917 71.060 C 46.357 71.500,46.279 75.998,45.833 75.882 C 45.650 75.834,45.500 75.691,45.500 75.564 C 45.500 75.437,45.396 75.333,45.268 75.333 C 45.141 75.333,44.991 75.165,44.937 74.958 C 44.784 74.381,43.601 73.167,43.192 73.167 C 42.995 73.167,42.832 73.073,42.830 72.958 C 42.827 72.704,42.108 72.000,41.852 72.000 C 41.750 72.000,41.667 71.887,41.667 71.750 C 41.667 71.612,41.554 71.500,41.417 71.500 C 41.279 71.500,41.167 71.387,41.167 71.250 C 41.167 71.112,41.054 71.000,40.917 71.000 C 40.779 71.000,40.667 70.885,40.667 70.745 C 40.667 70.604,40.535 70.441,40.375 70.382 C 40.215 70.323,40.023 70.176,39.950 70.054 C 39.877 69.933,39.633 69.833,39.408 69.833 C 39.156 69.833,39.000 69.738,39.000 69.583 C 39.000 69.446,38.859 69.333,38.686 69.333 C 38.512 69.333,38.333 69.184,38.285 69.000 C 38.226 68.775,38.058 68.667,37.766 68.667 C 37.492 68.667,37.333 68.575,37.333 68.417 C 37.333 68.278,37.185 68.167,37.000 68.167 C 36.815 68.167,36.667 68.056,36.667 67.917 C 36.667 67.752,36.502 67.667,36.186 67.667 C 35.846 67.667,35.680 67.569,35.618 67.333 C 35.555 67.091,35.391 67.000,35.016 67.000 C 34.668 67.000,34.500 66.918,34.500 66.750 C 34.500 66.594,34.342 66.500,34.078 66.500 C 33.846 66.500,33.613 66.387,33.560 66.250 C 33.508 66.112,33.360 66.000,33.232 66.000 C 33.104 66.000,32.850 65.850,32.667 65.667 C 32.460 65.460,32.111 65.333,31.750 65.333 C 31.343 65.333,31.167 65.258,31.167 65.083 C 31.167 64.946,31.026 64.833,30.854 64.833 C 30.682 64.833,30.447 64.721,30.333 64.583 C 30.219 64.446,29.870 64.333,29.558 64.333 C 29.206 64.333,28.953 64.238,28.894 64.083 C 28.828 63.914,28.563 63.833,28.066 63.833 C 27.444 63.833,27.333 63.783,27.333 63.500 C 27.333 63.207,27.222 63.167,26.411 63.167 C 25.397 63.167,25.149 63.399,25.465 64.053 C 25.561 64.253,25.681 64.712,25.731 65.074 C 25.782 65.435,25.938 65.795,26.078 65.874 C 26.248 65.969,26.333 66.265,26.333 66.758 C 26.333 67.306,26.399 67.500,26.583 67.500 C 26.763 67.500,26.833 67.684,26.833 68.155 C 26.833 68.515,26.946 68.922,27.083 69.060 C 27.221 69.197,27.333 69.534,27.333 69.808 C 27.333 70.474,27.486 70.833,27.768 70.833 C 27.922 70.833,28.000 71.029,28.000 71.417 C 28.000 71.824,28.075 72.000,28.250 72.000 C 28.431 72.000,28.500 72.186,28.500 72.672 C 28.500 73.115,28.585 73.376,28.750 73.440 C 28.887 73.492,29.000 73.678,29.000 73.851 C 29.000 74.056,29.117 74.167,29.333 74.167 C 29.603 74.167,29.667 74.278,29.667 74.750 C 29.667 75.157,29.742 75.333,29.917 75.333 C 30.083 75.333,30.167 75.500,30.167 75.833 C 30.167 76.167,30.250 76.333,30.417 76.333 C 30.584 76.333,30.667 76.501,30.667 76.839 C 30.667 77.134,30.771 77.384,30.917 77.440 C 31.054 77.492,31.167 77.629,31.167 77.742 C 31.167 77.855,31.317 78.084,31.500 78.250 C 31.683 78.416,31.833 78.690,31.833 78.859 C 31.833 79.028,31.946 79.167,32.083 79.167 C 32.221 79.167,32.333 79.279,32.333 79.417 C 32.333 79.554,32.446 79.667,32.583 79.667 C 32.752 79.667,32.833 79.835,32.833 80.182 C 32.833 80.558,32.924 80.722,33.167 80.785 C 33.350 80.833,33.500 80.976,33.500 81.103 C 33.500 81.230,33.612 81.333,33.750 81.333 C 33.900 81.333,34.000 81.487,34.000 81.719 C 34.000 81.951,34.233 82.312,34.583 82.622 C 34.904 82.906,35.167 83.220,35.167 83.319 C 35.167 83.419,35.279 83.500,35.417 83.500 C 35.556 83.500,35.667 83.648,35.667 83.833 C 35.667 84.017,35.771 84.167,35.899 84.167 C 36.027 84.167,36.174 84.279,36.227 84.417 C 36.280 84.554,36.438 84.667,36.578 84.667 C 36.718 84.667,36.833 84.779,36.833 84.917 C 36.833 85.054,36.946 85.167,37.083 85.167 C 37.221 85.167,37.333 85.245,37.333 85.341 C 37.333 85.437,37.540 85.698,37.792 85.919 L 38.250 86.323 37.667 86.323 C 37.346 86.323,36.938 86.213,36.760 86.078 C 36.546 85.916,36.035 85.833,35.250 85.833 C 34.465 85.833,33.954 85.916,33.740 86.078 C 33.499 86.260,32.915 86.324,31.457 86.328 C 29.707 86.333,29.466 86.369,29.211 86.667 C 28.982 86.934,28.720 87.000,27.880 87.000 C 27.061 87.000,26.833 87.054,26.833 87.250 C 26.833 87.447,26.602 87.500,25.750 87.500 C 24.898 87.500,24.667 87.553,24.667 87.750 C 24.667 87.939,24.463 88.000,23.833 88.000 C 23.204 88.000,23.000 88.061,23.000 88.250 C 23.000 88.388,22.855 88.500,22.679 88.500 C 22.018 88.500,21.661 89.137,22.083 89.560 C 22.221 89.697,22.333 89.890,22.333 89.988 C 22.333 90.086,22.596 90.167,22.917 90.167 C 23.324 90.167,23.500 90.242,23.500 90.417 C 23.500 90.554,23.607 90.667,23.739 90.667 C 23.870 90.667,24.025 90.817,24.083 91.000 C 24.157 91.234,24.336 91.333,24.678 91.333 C 25.001 91.333,25.167 91.418,25.167 91.583 C 25.167 91.721,25.309 91.833,25.482 91.833 C 25.656 91.833,25.841 91.946,25.894 92.083 C 25.946 92.221,26.171 92.333,26.392 92.333 C 26.654 92.333,26.825 92.449,26.882 92.667 C 26.945 92.909,27.109 93.000,27.484 93.000 C 27.832 93.000,28.000 93.082,28.000 93.250 C 28.000 93.415,28.165 93.500,28.482 93.500 C 28.757 93.500,29.006 93.607,29.060 93.750 C 29.125 93.920,29.392 94.000,29.892 94.000 C 30.488 94.000,30.644 94.063,30.715 94.333 C 30.778 94.573,30.942 94.667,31.300 94.667 C 31.589 94.667,31.838 94.772,31.894 94.917 C 31.959 95.088,32.227 95.167,32.745 95.167 C 33.305 95.167,33.500 95.231,33.500 95.417 C 33.500 95.613,33.731 95.667,34.583 95.667 C 35.395 95.667,35.667 95.725,35.667 95.897 C 35.667 96.220,36.199 96.328,37.792 96.331 C 38.552 96.332,39.167 96.404,39.167 96.492 C 39.167 96.580,39.424 96.700,39.738 96.759 C 40.355 96.874,40.399 97.237,39.818 97.422 C 39.643 97.477,39.500 97.622,39.500 97.743 C 39.500 97.865,39.387 98.008,39.250 98.060 C 39.112 98.113,39.000 98.346,39.000 98.578 C 39.000 98.842,38.906 99.000,38.750 99.000 C 38.611 99.000,38.500 99.148,38.500 99.333 C 38.500 99.556,38.389 99.667,38.167 99.667 C 37.981 99.667,37.833 99.778,37.833 99.917 C 37.833 100.054,37.721 100.167,37.583 100.167 C 37.446 100.167,37.333 100.307,37.333 100.480 C 37.333 100.652,37.221 100.886,37.083 101.000 C 36.946 101.114,36.833 101.348,36.833 101.520 C 36.833 101.693,36.748 101.833,36.644 101.833 C 36.138 101.833,35.667 102.681,35.667 103.592 L 35.667 104.500 38.839 104.500 C 41.504 104.500,42.026 104.460,42.106 104.250 C 42.178 104.064,42.475 104.000,43.273 104.000 C 44.071 104.000,44.368 103.936,44.440 103.750 C 44.499 103.596,44.752 103.500,45.101 103.500 C 45.444 103.500,45.798 103.369,46.000 103.167 C 46.202 102.965,46.556 102.833,46.896 102.833 C 47.206 102.833,47.553 102.721,47.667 102.583 C 47.781 102.446,47.977 102.333,48.104 102.333 C 48.230 102.333,48.333 102.221,48.333 102.083 C 48.333 101.915,48.502 101.833,48.849 101.833 C 49.224 101.833,49.388 101.743,49.452 101.500 C 49.500 101.317,49.643 101.167,49.769 101.167 C 50.125 101.167,50.106 96.530,49.750 96.394 C 49.556 96.319,49.500 95.990,49.500 94.912 C 49.500 93.384,49.413 93.000,49.066 93.000 C 48.893 93.000,48.833 92.743,48.833 91.995 C 48.833 91.255,48.767 90.964,48.583 90.894 C 48.408 90.826,48.333 90.553,48.333 89.982 C 48.333 89.368,48.271 89.167,48.083 89.167 C 47.915 89.167,47.833 88.998,47.833 88.651 C 47.833 88.276,47.743 88.112,47.500 88.048 C 47.264 87.987,47.167 87.821,47.167 87.481 C 47.167 87.165,47.081 87.000,46.917 87.000 C 46.749 87.000,46.667 86.833,46.667 86.495 C 46.667 86.199,46.563 85.950,46.417 85.894 C 46.279 85.841,46.167 85.693,46.167 85.566 C 46.167 85.438,46.017 85.333,45.833 85.333 C 45.563 85.333,45.500 85.222,45.500 84.750 C 45.500 84.343,45.425 84.167,45.250 84.167 C 45.112 84.167,45.000 84.054,45.000 83.917 C 45.000 83.779,44.887 83.667,44.750 83.667 C 44.583 83.667,44.500 83.499,44.500 83.161 C 44.500 82.866,44.396 82.616,44.250 82.560 C 44.112 82.508,44.000 82.360,44.000 82.232 C 44.000 82.104,43.850 82.000,43.667 82.000 C 43.444 82.000,43.333 81.889,43.333 81.667 C 43.333 81.481,43.222 81.333,43.083 81.333 C 42.946 81.333,42.833 81.221,42.833 81.083 C 42.833 80.946,42.730 80.833,42.604 80.833 C 42.478 80.833,42.330 80.608,42.275 80.333 C 42.216 80.040,42.070 79.833,41.921 79.833 C 41.778 79.833,41.667 79.688,41.667 79.500 C 41.667 79.315,41.556 79.167,41.417 79.167 C 41.279 79.167,41.167 79.054,41.167 78.917 C 41.167 78.779,41.062 78.667,40.934 78.667 C 40.807 78.667,40.659 78.554,40.606 78.417 C 40.554 78.279,40.396 78.167,40.255 78.167 C 40.096 78.167,40.007 78.026,40.019 77.792 C 40.034 77.509,40.058 77.489,40.115 77.708 C 40.157 77.869,40.298 78.000,40.429 78.000 C 40.560 78.000,40.667 78.077,40.667 78.170 C 40.667 78.264,40.873 78.431,41.125 78.542 C 41.377 78.652,41.643 78.838,41.717 78.955 C 41.790 79.071,41.959 79.167,42.092 79.167 C 42.225 79.167,42.333 79.279,42.333 79.417 C 42.333 79.578,42.496 79.667,42.793 79.667 C 43.073 79.667,43.335 79.797,43.461 80.000 C 43.579 80.188,43.850 80.333,44.085 80.333 C 44.343 80.333,44.500 80.428,44.500 80.583 C 44.500 80.721,44.615 80.833,44.755 80.833 C 44.896 80.833,45.054 80.946,45.106 81.083 C 45.160 81.222,45.407 81.333,45.665 81.333 C 45.988 81.333,46.154 81.434,46.215 81.667 C 46.278 81.909,46.442 82.000,46.818 82.000 C 47.165 82.000,47.333 82.082,47.333 82.250 C 47.333 82.415,47.498 82.500,47.816 82.500 C 48.090 82.500,48.339 82.607,48.394 82.750 C 48.459 82.921,48.727 83.000,49.245 83.000 C 49.805 83.000,50.000 83.065,50.000 83.250 C 50.000 83.448,50.240 83.500,51.158 83.500 C 51.997 83.500,52.354 83.567,52.452 83.742 C 52.699 84.183,53.912 84.255,54.315 83.852 C 54.610 83.556,54.867 83.500,55.917 83.500 C 56.917 83.500,57.167 83.450,57.167 83.250 C 57.167 83.069,57.352 83.000,57.839 83.000 C 58.282 83.000,58.543 82.915,58.606 82.750 C 58.666 82.595,58.919 82.500,59.273 82.500 C 59.627 82.500,59.880 82.405,59.940 82.250 C 59.992 82.112,60.222 82.000,60.450 82.000 C 60.724 82.000,60.894 81.887,60.952 81.667 C 61.014 81.430,61.179 81.333,61.525 81.333 C 61.803 81.333,62.051 81.226,62.106 81.083 C 62.159 80.946,62.307 80.833,62.434 80.833 C 62.562 80.833,62.667 80.721,62.667 80.583 C 62.667 80.446,62.814 80.333,62.994 80.333 C 63.173 80.333,63.455 80.200,63.619 80.037 C 63.782 79.874,64.273 79.568,64.708 79.358 C 65.144 79.148,65.500 78.907,65.500 78.822 C 65.500 78.736,65.612 78.667,65.750 78.667 C 65.887 78.667,66.000 78.525,66.000 78.352 C 66.000 78.116,66.146 78.019,66.583 77.968 C 66.904 77.931,67.167 77.960,67.167 78.033 C 67.167 78.107,67.054 78.167,66.917 78.167 C 66.779 78.167,66.667 78.279,66.667 78.417 C 66.667 78.554,66.552 78.667,66.411 78.667 C 66.271 78.667,66.113 78.779,66.060 78.917 C 66.008 79.054,65.860 79.167,65.732 79.167 C 65.604 79.167,65.500 79.317,65.500 79.500 C 65.500 79.685,65.389 79.833,65.250 79.833 C 65.112 79.833,65.000 79.946,65.000 80.083 C 65.000 80.221,64.886 80.333,64.746 80.333 C 64.597 80.333,64.450 80.540,64.392 80.833 C 64.337 81.108,64.189 81.333,64.063 81.333 C 63.936 81.333,63.833 81.483,63.833 81.667 C 63.833 81.852,63.722 82.000,63.583 82.000 C 63.446 82.000,63.333 82.112,63.333 82.250 C 63.333 82.387,63.218 82.500,63.078 82.500 C 62.938 82.500,62.775 82.631,62.716 82.792 C 62.657 82.952,62.509 83.143,62.388 83.217 C 62.266 83.290,62.167 83.534,62.167 83.758 C 62.167 84.010,62.071 84.167,61.917 84.167 C 61.779 84.167,61.667 84.271,61.667 84.399 C 61.667 84.527,61.554 84.674,61.417 84.727 C 61.274 84.782,61.167 85.031,61.167 85.309 C 61.167 85.654,61.070 85.820,60.833 85.882 C 60.591 85.945,60.500 86.109,60.500 86.484 C 60.500 86.832,60.418 87.000,60.250 87.000 C 60.083 87.000,60.000 87.167,60.000 87.500 C 60.000 87.833,59.917 88.000,59.750 88.000 C 59.575 88.000,59.500 88.176,59.500 88.583 C 59.500 89.056,59.437 89.167,59.167 89.167 C 58.899 89.167,58.833 89.278,58.833 89.732 C 58.833 90.081,58.738 90.334,58.583 90.394 C 58.399 90.464,58.333 90.755,58.333 91.495 C 58.333 92.277,58.278 92.500,58.083 92.500 C 57.882 92.500,57.833 92.758,57.833 93.825 C 57.833 94.914,57.781 95.179,57.542 95.313 C 57.046 95.590,56.993 101.167,57.486 101.167 C 57.722 101.167,57.833 101.273,57.833 101.500 C 57.833 101.683,57.938 101.833,58.066 101.833 C 58.193 101.833,58.341 101.946,58.394 102.083 C 58.450 102.229,58.699 102.333,58.995 102.333 C 59.333 102.333,59.500 102.416,59.500 102.583 C 59.500 102.771,59.702 102.833,60.314 102.833 C 60.988 102.833,61.143 102.891,61.215 103.167 C 61.284 103.432,61.442 103.500,61.990 103.500 C 62.447 103.500,62.709 103.584,62.773 103.750 C 62.844 103.936,63.139 104.000,63.917 104.000 C 64.694 104.000,64.989 104.064,65.060 104.250 C 65.141 104.460,65.662 104.500,68.328 104.500 L 71.500 104.500 71.500 103.750 C 71.500 103.194,71.435 103.000,71.250 103.000 C 71.075 103.000,71.000 102.824,71.000 102.417 C 71.000 102.009,70.925 101.833,70.750 101.833 C 70.612 101.833,70.500 101.721,70.500 101.583 C 70.500 101.444,70.352 101.333,70.167 101.333 C 69.897 101.333,69.833 101.222,69.833 100.750 C 69.833 100.343,69.758 100.167,69.583 100.167 C 69.446 100.167,69.333 100.054,69.333 99.917 C 69.333 99.779,69.230 99.667,69.103 99.667 C 68.976 99.667,68.833 99.517,68.785 99.333 C 68.737 99.150,68.578 99.000,68.432 99.000 C 68.286 99.000,68.167 98.888,68.167 98.750 C 68.167 98.612,68.054 98.500,67.917 98.500 C 67.772 98.500,67.667 98.349,67.667 98.144 C 67.667 97.780,66.977 97.016,66.616 96.980 C 66.507 96.970,66.790 96.898,67.247 96.822 C 67.704 96.746,68.104 96.604,68.136 96.508 C 68.170 96.407,68.730 96.332,69.472 96.331 C 70.970 96.328,71.500 96.215,71.500 95.897 C 71.500 95.732,71.735 95.667,72.333 95.667 C 72.963 95.667,73.167 95.606,73.167 95.417 C 73.167 95.228,73.370 95.167,74.000 95.167 C 74.630 95.167,74.833 95.106,74.833 94.917 C 74.833 94.743,75.008 94.667,75.403 94.667 C 76.137 94.667,76.500 94.523,76.500 94.232 C 76.500 94.065,76.732 94.000,77.333 94.000 C 77.963 94.000,78.167 93.939,78.167 93.750 C 78.167 93.585,78.331 93.500,78.649 93.500 C 78.924 93.500,79.172 93.393,79.227 93.250 C 79.280 93.112,79.438 93.000,79.578 93.000 C 79.722 93.000,79.833 92.855,79.833 92.667 C 79.833 92.397,79.944 92.333,80.417 92.333 C 80.824 92.333,81.000 92.258,81.000 92.083 C 81.000 91.917,81.167 91.833,81.500 91.833 C 81.833 91.833,82.000 91.750,82.000 91.583 C 82.000 91.444,82.148 91.333,82.335 91.333 C 82.519 91.333,82.798 91.183,82.955 91.000 C 83.112 90.817,83.337 90.667,83.454 90.667 C 83.571 90.667,83.667 90.554,83.667 90.417 C 83.667 90.245,83.839 90.167,84.213 90.167 C 84.672 90.167,84.792 90.083,84.955 89.651 C 85.167 89.088,84.954 88.500,84.538 88.500 C 84.420 88.500,84.280 88.388,84.227 88.250 C 84.162 88.082,83.898 88.000,83.417 88.000 C 82.935 88.000,82.671 87.918,82.606 87.750 C 82.535 87.563,82.236 87.500,81.422 87.500 C 80.565 87.500,80.333 87.447,80.333 87.250 C 80.333 87.054,80.106 87.000,79.287 87.000 C 78.447 87.000,78.184 86.934,77.955 86.667 C 77.700 86.369,77.464 86.333,75.740 86.333 C 74.246 86.333,73.753 86.277,73.560 86.083 C 73.209 85.733,70.368 85.729,69.907 86.078 C 69.489 86.394,68.833 86.405,68.833 86.097 C 68.833 85.966,69.058 85.810,69.333 85.750 C 69.608 85.690,69.833 85.534,69.833 85.403 C 69.833 85.273,69.948 85.167,70.089 85.167 C 70.229 85.167,70.387 85.054,70.440 84.917 C 70.492 84.779,70.640 84.667,70.768 84.667 C 70.896 84.667,71.000 84.552,71.000 84.411 C 71.000 84.271,71.112 84.113,71.250 84.060 C 71.393 84.006,71.500 83.757,71.500 83.482 C 71.500 83.111,71.577 83.000,71.833 83.000 C 72.019 83.000,72.167 82.889,72.167 82.750 C 72.167 82.612,72.279 82.500,72.417 82.500 C 72.554 82.500,72.667 82.387,72.667 82.250 C 72.667 82.112,72.779 82.000,72.917 82.000 C 73.056 82.000,73.167 81.852,73.167 81.667 C 73.167 81.444,73.278 81.333,73.500 81.333 C 73.715 81.333,73.833 81.222,73.833 81.020 C 73.833 80.848,73.946 80.614,74.083 80.500 C 74.221 80.386,74.333 80.152,74.333 79.980 C 74.333 79.807,74.446 79.667,74.583 79.667 C 74.721 79.667,74.833 79.554,74.833 79.417 C 74.833 79.279,74.946 79.167,75.083 79.167 C 75.258 79.167,75.333 78.991,75.333 78.583 C 75.333 78.111,75.397 78.000,75.667 78.000 C 75.850 78.000,76.000 77.896,76.000 77.768 C 76.000 77.640,76.112 77.492,76.250 77.440 C 76.396 77.384,76.500 77.134,76.500 76.839 C 76.500 76.501,76.583 76.333,76.750 76.333 C 76.914 76.333,77.000 76.169,77.000 75.853 C 77.000 75.512,77.097 75.347,77.333 75.285 C 77.576 75.222,77.667 75.058,77.667 74.682 C 77.667 74.335,77.748 74.167,77.917 74.167 C 78.081 74.167,78.167 74.002,78.167 73.684 C 78.167 73.410,78.274 73.161,78.417 73.106 C 78.563 73.050,78.667 72.801,78.667 72.505 C 78.667 72.184,78.751 72.000,78.899 72.000 C 79.188 72.000,79.333 71.638,79.333 70.921 C 79.333 70.584,79.431 70.332,79.583 70.273 C 79.755 70.207,79.833 69.939,79.833 69.422 C 79.833 68.862,79.898 68.667,80.083 68.667 C 80.271 68.667,80.333 68.465,80.333 67.853 C 80.333 67.179,80.391 67.024,80.667 66.952 C 80.938 66.881,81.000 66.724,81.000 66.117 C 81.000 65.606,81.079 65.339,81.250 65.273 C 81.434 65.202,81.500 64.912,81.500 64.172 L 81.500 63.167 80.734 63.167 C 80.109 63.167,79.953 63.228,79.882 63.500 C 79.811 63.770,79.654 63.833,79.059 63.833 C 78.558 63.833,78.292 63.913,78.227 64.083 C 78.162 64.253,77.896 64.333,77.399 64.333 C 76.859 64.333,76.667 64.399,76.667 64.583 C 76.667 64.751,76.499 64.833,76.161 64.833 C 75.882 64.833,75.616 64.938,75.567 65.067 C 75.517 65.195,75.220 65.349,74.905 65.408 C 74.565 65.472,74.333 65.613,74.333 65.758 C 74.333 65.916,74.160 66.000,73.833 66.000 C 73.500 66.000,73.333 66.083,73.333 66.250 C 73.333 66.389,73.185 66.500,73.000 66.500 C 72.815 66.500,72.667 66.611,72.667 66.750 C 72.667 66.917,72.500 67.000,72.167 67.000 C 71.889 67.000,71.519 67.148,71.333 67.333 C 71.150 67.517,70.887 67.667,70.750 67.667 C 70.612 67.667,70.500 67.779,70.500 67.917 C 70.500 68.054,70.387 68.167,70.250 68.167 C 70.112 68.167,70.000 68.279,70.000 68.417 C 70.000 68.585,69.832 68.667,69.484 68.667 C 69.109 68.667,68.945 68.757,68.882 69.000 C 68.834 69.183,68.691 69.333,68.564 69.333 C 68.437 69.333,68.333 69.446,68.333 69.583 C 68.333 69.758,68.157 69.833,67.750 69.833 C 67.343 69.833,67.167 69.909,67.167 70.083 C 67.167 70.221,67.054 70.333,66.917 70.333 C 66.778 70.333,66.667 70.481,66.667 70.667 C 66.667 70.889,66.556 71.000,66.333 71.000 C 66.148 71.000,66.000 71.111,66.000 71.250 C 66.000 71.387,65.887 71.500,65.750 71.500 C 65.612 71.500,65.500 71.612,65.500 71.750 C 65.500 71.887,65.356 72.000,65.181 72.000 C 65.006 72.000,64.592 72.262,64.261 72.583 C 63.931 72.904,63.587 73.167,63.497 73.167 C 63.407 73.167,63.333 73.279,63.333 73.417 C 63.333 73.554,63.221 73.667,63.083 73.667 C 62.946 73.667,62.833 73.738,62.833 73.825 C 62.833 73.913,62.571 74.239,62.250 74.550 C 61.929 74.862,61.667 75.278,61.667 75.475 C 61.667 75.682,61.561 75.833,61.417 75.833 C 61.278 75.833,61.167 75.981,61.167 76.167 C 61.167 76.389,61.056 76.500,60.833 76.500 C 60.432 76.500,60.380 75.974,60.750 75.667 C 60.964 75.489,61.000 74.582,61.000 69.391 C 61.000 64.151,60.966 63.310,60.750 63.227 C 60.554 63.152,60.500 62.812,60.500 61.644 C 60.500 60.475,60.446 60.136,60.250 60.060 C 60.071 59.991,60.000 59.711,60.000 59.066 C 60.000 58.389,59.918 58.084,59.667 57.833 C 59.407 57.574,59.333 57.278,59.333 56.500 C 59.333 55.722,59.278 55.500,59.083 55.500 C 58.894 55.500,58.833 55.296,58.833 54.667 C 58.833 54.037,58.772 53.833,58.583 53.833 C 58.397 53.833,58.333 53.637,58.333 53.068 C 58.333 52.442,58.272 52.286,58.000 52.215 C 57.741 52.147,57.667 51.988,57.667 51.501 C 57.667 51.147,57.558 50.784,57.417 50.667 C 57.279 50.553,57.167 50.243,57.167 49.980 C 57.167 49.664,57.081 49.500,56.917 49.500 C 56.743 49.500,56.667 49.326,56.667 48.930 C 56.667 48.196,56.523 47.833,56.232 47.833 C 56.087 47.833,56.000 47.652,56.000 47.351 C 56.000 47.076,55.893 46.828,55.750 46.773 C 55.612 46.720,55.500 46.485,55.500 46.250 C 55.500 46.015,55.387 45.780,55.250 45.727 C 55.112 45.674,55.000 45.457,55.000 45.244 C 55.000 45.031,54.897 44.755,54.772 44.629 C 54.647 44.504,54.486 44.217,54.416 43.992 C 54.231 43.399,53.326 43.063,52.944 43.444 M250.048 44.167 C 249.976 44.443,249.821 44.500,249.147 44.500 C 248.535 44.500,248.333 44.562,248.333 44.750 C 248.333 44.931,248.148 45.000,247.661 45.000 C 247.218 45.000,246.957 45.085,246.894 45.250 C 246.841 45.387,246.656 45.500,246.482 45.500 C 246.278 45.500,246.167 45.617,246.167 45.833 C 246.167 46.090,246.056 46.167,245.684 46.167 C 245.410 46.167,245.161 46.274,245.106 46.417 C 245.054 46.554,244.896 46.667,244.755 46.667 C 244.615 46.667,244.500 46.779,244.500 46.917 C 244.500 47.054,244.387 47.167,244.250 47.167 C 244.111 47.167,244.000 47.315,244.000 47.500 C 244.000 47.722,243.889 47.833,243.667 47.833 C 243.481 47.833,243.333 47.944,243.333 48.083 C 243.333 48.221,243.221 48.333,243.083 48.333 C 242.946 48.333,242.833 48.446,242.833 48.583 C 242.833 48.721,242.721 48.833,242.583 48.833 C 242.446 48.833,242.333 48.902,242.333 48.986 C 242.333 49.069,242.071 49.408,241.750 49.739 C 241.429 50.069,241.167 50.480,241.167 50.652 C 241.167 50.824,241.054 51.008,240.917 51.060 C 240.771 51.116,240.667 51.366,240.667 51.661 C 240.667 51.999,240.584 52.167,240.417 52.167 C 240.242 52.167,240.167 52.343,240.167 52.750 C 240.167 53.222,240.103 53.333,239.833 53.333 C 239.544 53.333,239.500 53.444,239.500 54.167 C 239.500 54.796,239.439 55.000,239.250 55.000 C 239.034 55.000,239.000 55.621,239.000 59.589 C 239.000 63.514,239.036 64.191,239.250 64.273 C 239.421 64.339,239.500 64.606,239.500 65.117 C 239.500 65.724,239.562 65.881,239.833 65.952 C 240.069 66.013,240.167 66.179,240.167 66.519 C 240.167 66.835,240.252 67.000,240.417 67.000 C 240.591 67.000,240.667 67.176,240.667 67.583 C 240.667 67.991,240.742 68.167,240.917 68.167 C 241.073 68.167,241.167 68.325,241.167 68.589 C 241.167 68.821,241.272 69.051,241.400 69.100 C 241.529 69.149,241.672 69.335,241.718 69.512 C 241.764 69.689,241.922 69.833,242.068 69.833 C 242.214 69.833,242.333 69.946,242.333 70.083 C 242.333 70.221,242.446 70.333,242.583 70.333 C 242.721 70.333,242.833 70.446,242.833 70.583 C 242.833 70.721,242.937 70.833,243.064 70.833 C 243.191 70.833,243.334 70.983,243.382 71.167 C 243.430 71.350,243.588 71.500,243.734 71.500 C 243.880 71.500,244.000 71.612,244.000 71.750 C 244.000 71.887,244.112 72.000,244.250 72.000 C 244.387 72.000,244.500 72.112,244.500 72.250 C 244.500 72.387,244.612 72.500,244.750 72.500 C 244.887 72.500,245.000 72.615,245.000 72.755 C 245.000 72.896,245.131 73.060,245.292 73.121 C 245.452 73.182,245.682 73.329,245.804 73.449 C 245.925 73.569,246.171 73.667,246.350 73.667 C 246.530 73.667,246.720 73.779,246.773 73.917 C 246.828 74.059,247.076 74.167,247.351 74.167 C 247.652 74.167,247.833 74.254,247.833 74.399 C 247.833 74.688,248.195 74.833,248.912 74.833 C 249.249 74.833,249.502 74.931,249.560 75.083 C 249.642 75.297,250.328 75.333,254.316 75.333 C 258.236 75.333,259.016 75.294,259.226 75.083 C 259.364 74.946,259.700 74.833,259.974 74.833 C 260.640 74.833,261.000 74.681,261.000 74.399 C 261.000 74.245,261.196 74.167,261.583 74.167 C 261.991 74.167,262.167 74.091,262.167 73.917 C 262.167 73.749,262.334 73.667,262.672 73.667 C 262.950 73.667,263.217 73.563,263.266 73.435 C 263.315 73.308,263.575 73.160,263.844 73.106 C 264.129 73.049,264.333 72.902,264.333 72.754 C 264.333 72.611,264.479 72.500,264.667 72.500 C 264.852 72.500,265.000 72.389,265.000 72.250 C 265.000 72.112,265.112 72.000,265.250 72.000 C 265.387 72.000,265.500 71.887,265.500 71.750 C 265.500 71.612,265.612 71.500,265.750 71.500 C 265.958 71.500,266.000 71.176,266.000 69.583 C 266.000 67.991,265.958 67.667,265.750 67.667 C 265.612 67.667,265.499 67.573,265.497 67.458 C 265.496 67.344,265.316 67.081,265.099 66.875 C 264.608 66.410,261.667 66.292,261.667 66.737 C 261.667 66.867,261.448 67.022,261.181 67.080 C 260.913 67.139,260.653 67.295,260.602 67.427 C 260.552 67.559,260.396 67.667,260.255 67.667 C 260.115 67.667,260.000 67.779,260.000 67.917 C 260.000 68.091,259.824 68.167,259.417 68.167 C 259.009 68.167,258.833 68.242,258.833 68.417 C 258.833 68.603,258.637 68.667,258.068 68.667 C 257.442 68.667,257.286 68.728,257.215 69.000 C 257.132 69.316,256.988 69.333,254.417 69.333 C 251.846 69.333,251.701 69.316,251.618 69.000 C 251.556 68.761,251.391 68.667,251.033 68.667 C 250.745 68.667,250.495 68.562,250.440 68.417 C 250.387 68.279,250.162 68.167,249.940 68.167 C 249.717 68.167,249.492 68.054,249.440 67.917 C 249.384 67.771,249.134 67.667,248.839 67.667 C 248.444 67.667,248.333 67.593,248.333 67.333 C 248.333 67.148,248.222 67.000,248.083 67.000 C 247.946 67.000,247.833 66.887,247.833 66.750 C 247.833 66.611,247.685 66.500,247.500 66.500 C 247.241 66.500,247.167 66.389,247.167 66.000 C 247.167 65.667,247.083 65.500,246.917 65.500 C 246.779 65.500,246.667 65.385,246.667 65.245 C 246.667 65.104,246.563 64.950,246.435 64.901 C 246.308 64.852,246.160 64.592,246.106 64.323 C 246.049 64.038,245.902 63.833,245.754 63.833 C 245.575 63.833,245.500 63.662,245.500 63.250 L 245.500 62.667 256.458 62.664 C 267.576 62.662,268.167 62.640,268.167 62.231 C 268.167 62.104,268.270 62.000,268.397 62.000 C 268.650 62.000,268.828 61.505,268.831 60.792 C 268.833 60.496,268.922 60.333,269.083 60.333 C 269.278 60.333,269.333 60.111,269.333 59.328 C 269.333 58.588,269.267 58.298,269.083 58.227 C 268.886 58.151,268.833 57.803,268.833 56.566 C 268.833 55.111,268.810 55.000,268.500 55.000 C 268.211 55.000,268.167 54.889,268.167 54.167 C 268.167 53.537,268.106 53.333,267.917 53.333 C 267.731 53.333,267.667 53.138,267.667 52.578 C 267.667 52.084,267.586 51.792,267.433 51.733 C 267.305 51.684,267.162 51.499,267.115 51.322 C 267.069 51.145,266.912 51.000,266.766 51.000 C 266.582 51.000,266.500 50.846,266.500 50.500 C 266.500 50.167,266.417 50.000,266.250 50.000 C 266.111 50.000,266.000 49.852,266.000 49.667 C 266.000 49.481,265.889 49.333,265.750 49.333 C 265.612 49.333,265.500 49.221,265.500 49.083 C 265.500 48.946,265.387 48.833,265.250 48.833 C 265.112 48.833,265.000 48.721,265.000 48.583 C 265.000 48.444,264.852 48.333,264.667 48.333 C 264.481 48.333,264.333 48.222,264.333 48.083 C 264.333 47.946,264.221 47.833,264.083 47.833 C 263.944 47.833,263.833 47.685,263.833 47.500 C 263.833 47.317,263.729 47.167,263.601 47.167 C 263.473 47.167,263.326 47.054,263.273 46.917 C 263.220 46.779,263.062 46.667,262.922 46.667 C 262.782 46.667,262.667 46.554,262.667 46.417 C 262.667 46.279,262.572 46.167,262.457 46.167 C 262.341 46.167,262.153 46.017,262.039 45.833 C 261.921 45.645,261.650 45.500,261.415 45.500 C 261.157 45.500,261.000 45.405,261.000 45.250 C 261.000 45.075,260.824 45.000,260.417 45.000 C 260.009 45.000,259.833 44.925,259.833 44.750 C 259.833 44.554,259.604 44.500,258.769 44.500 C 257.846 44.500,257.694 44.456,257.618 44.167 C 257.535 43.846,257.391 43.833,253.833 43.833 C 250.276 43.833,250.132 43.846,250.048 44.167 M286.292 43.948 C 286.131 43.990,286.000 44.131,286.000 44.262 C 286.000 44.433,285.788 44.500,285.245 44.500 C 284.727 44.500,284.459 44.579,284.394 44.750 C 284.339 44.893,284.090 45.000,283.810 45.000 C 283.542 45.000,283.283 45.104,283.234 45.231 C 283.185 45.359,282.925 45.507,282.656 45.560 C 282.371 45.617,282.167 45.765,282.167 45.913 C 282.167 46.056,282.021 46.167,281.833 46.167 C 281.648 46.167,281.500 46.278,281.500 46.417 C 281.500 46.554,281.387 46.667,281.250 46.667 C 281.112 46.667,281.000 46.779,281.000 46.917 C 281.000 47.064,280.846 47.168,280.625 47.169 C 280.153 47.173,278.833 48.511,278.833 48.986 C 278.833 49.193,278.726 49.333,278.568 49.333 C 278.422 49.333,278.263 49.483,278.215 49.667 C 278.167 49.850,278.024 50.000,277.897 50.000 C 277.770 50.000,277.667 50.104,277.667 50.232 C 277.667 50.360,277.554 50.508,277.417 50.560 C 277.271 50.616,277.167 50.866,277.167 51.161 C 277.167 51.503,277.084 51.667,276.912 51.667 C 276.762 51.667,276.616 51.876,276.555 52.181 C 276.499 52.464,276.351 52.734,276.226 52.782 C 276.083 52.837,276.000 53.138,276.000 53.601 C 276.000 54.141,275.934 54.333,275.750 54.333 C 275.548 54.333,275.500 54.600,275.500 55.731 C 275.500 56.988,275.467 57.137,275.167 57.215 C 274.854 57.297,274.833 57.442,274.833 59.583 C 274.833 61.724,274.854 61.870,275.167 61.952 C 275.467 62.030,275.500 62.179,275.500 63.436 C 275.500 64.567,275.548 64.833,275.750 64.833 C 275.935 64.833,276.000 65.028,276.000 65.589 C 276.000 66.106,276.079 66.374,276.250 66.440 C 276.387 66.492,276.500 66.722,276.500 66.950 C 276.500 67.224,276.613 67.394,276.833 67.452 C 277.084 67.517,277.167 67.679,277.167 68.103 C 277.167 68.493,277.244 68.667,277.417 68.667 C 277.554 68.667,277.667 68.779,277.667 68.917 C 277.667 69.054,277.779 69.167,277.917 69.167 C 278.072 69.167,278.167 69.324,278.167 69.582 C 278.167 69.817,278.312 70.088,278.500 70.205 C 278.683 70.320,278.833 70.508,278.833 70.623 C 278.833 70.739,278.946 70.833,279.083 70.833 C 279.221 70.833,279.335 70.927,279.336 71.042 C 279.340 71.287,280.055 72.000,280.297 72.000 C 280.389 72.000,280.508 72.112,280.560 72.250 C 280.613 72.387,280.846 72.500,281.078 72.500 C 281.310 72.500,281.500 72.585,281.500 72.689 C 281.500 73.019,282.334 73.667,282.759 73.667 C 283.010 73.667,283.167 73.763,283.167 73.917 C 283.167 74.090,283.340 74.167,283.731 74.167 C 284.154 74.167,284.316 74.250,284.382 74.500 C 284.453 74.772,284.609 74.833,285.234 74.833 C 285.804 74.833,286.000 74.897,286.000 75.083 C 286.000 75.299,286.581 75.333,290.230 75.333 C 293.786 75.333,294.492 75.294,294.667 75.083 C 294.781 74.946,295.084 74.833,295.340 74.833 C 295.975 74.833,296.333 74.677,296.333 74.399 C 296.333 74.245,296.529 74.167,296.917 74.167 C 297.324 74.167,297.500 74.091,297.500 73.917 C 297.500 73.779,297.612 73.667,297.750 73.667 C 297.887 73.667,298.000 73.559,298.000 73.427 C 298.000 73.279,298.206 73.168,298.538 73.136 C 299.209 73.070,299.833 73.599,299.833 74.233 C 299.833 74.477,299.946 74.720,300.083 74.773 C 300.221 74.826,300.333 74.973,300.333 75.101 C 300.333 75.286,300.721 75.333,302.236 75.333 C 304.494 75.333,304.667 75.285,304.667 74.649 C 304.667 74.331,304.752 74.167,304.917 74.167 C 305.136 74.167,305.167 73.019,305.167 64.833 C 305.167 56.648,305.136 55.500,304.917 55.500 C 304.722 55.500,304.667 55.277,304.667 54.495 C 304.667 53.755,304.601 53.464,304.417 53.394 C 304.273 53.339,304.167 53.090,304.167 52.810 C 304.167 52.531,304.060 52.282,303.917 52.227 C 303.779 52.174,303.667 51.988,303.667 51.814 C 303.667 51.639,303.517 51.368,303.333 51.211 C 303.150 51.054,303.000 50.830,303.000 50.713 C 303.000 50.596,302.887 50.500,302.750 50.500 C 302.596 50.500,302.500 50.344,302.500 50.092 C 302.500 49.667,301.852 48.833,301.523 48.833 C 301.418 48.833,301.333 48.721,301.333 48.583 C 301.333 48.446,301.221 48.333,301.083 48.333 C 300.946 48.333,300.833 48.221,300.833 48.083 C 300.833 47.946,300.721 47.833,300.583 47.833 C 300.446 47.833,300.333 47.714,300.333 47.568 C 300.333 47.422,300.183 47.263,300.000 47.215 C 299.817 47.167,299.667 47.024,299.667 46.897 C 299.667 46.770,299.562 46.667,299.434 46.667 C 299.307 46.667,299.159 46.554,299.106 46.417 C 299.050 46.271,298.801 46.167,298.505 46.167 C 298.111 46.167,298.000 46.093,298.000 45.833 C 298.000 45.574,297.889 45.500,297.500 45.500 C 297.167 45.500,297.000 45.417,297.000 45.250 C 297.000 45.075,296.824 45.000,296.417 45.000 C 296.009 45.000,295.833 44.925,295.833 44.750 C 295.833 44.562,295.632 44.500,295.019 44.500 C 294.346 44.500,294.191 44.443,294.118 44.167 C 294.035 43.846,287.392 43.661,286.292 43.948 M255.774 50.250 C 255.911 50.387,256.283 50.500,256.600 50.500 C 256.959 50.500,257.213 50.594,257.273 50.750 C 257.328 50.893,257.576 51.000,257.851 51.000 C 258.169 51.000,258.333 51.085,258.333 51.250 C 258.333 51.387,258.408 51.500,258.500 51.500 C 258.592 51.500,258.817 51.650,259.000 51.833 C 259.183 52.017,259.483 52.167,259.667 52.167 C 259.852 52.167,260.000 52.278,260.000 52.417 C 260.000 52.554,260.112 52.667,260.250 52.667 C 260.389 52.667,260.500 52.815,260.500 53.000 C 260.500 53.183,260.650 53.483,260.833 53.667 C 261.017 53.850,261.167 54.075,261.167 54.167 C 261.167 54.258,261.279 54.333,261.417 54.333 C 261.583 54.333,261.667 54.500,261.667 54.833 C 261.667 55.167,261.750 55.333,261.917 55.333 C 262.054 55.333,262.167 55.477,262.167 55.653 C 262.167 55.829,262.212 56.091,262.268 56.236 C 262.359 56.475,261.557 56.500,253.934 56.500 L 245.500 56.500 245.500 56.011 C 245.500 55.669,245.600 55.491,245.833 55.417 C 246.067 55.343,246.167 55.164,246.167 54.822 C 246.167 54.499,246.251 54.333,246.417 54.333 C 246.554 54.333,246.667 54.218,246.667 54.078 C 246.667 53.938,246.779 53.780,246.917 53.727 C 247.054 53.674,247.167 53.527,247.167 53.399 C 247.167 53.271,247.242 53.167,247.333 53.167 C 247.425 53.167,247.800 52.867,248.167 52.500 C 248.533 52.133,248.833 51.758,248.833 51.667 C 248.833 51.575,248.983 51.500,249.167 51.500 C 249.352 51.500,249.500 51.389,249.500 51.250 C 249.500 51.083,249.667 51.000,250.000 51.000 C 250.333 51.000,250.500 50.917,250.500 50.750 C 250.500 50.565,250.695 50.500,251.255 50.500 C 251.773 50.500,252.041 50.421,252.106 50.250 C 252.183 50.051,252.541 50.000,253.863 50.000 C 255.117 50.000,255.585 50.061,255.774 50.250 M292.060 50.250 C 292.126 50.421,292.394 50.500,292.911 50.500 C 293.472 50.500,293.667 50.565,293.667 50.750 C 293.667 50.925,293.843 51.000,294.250 51.000 C 294.657 51.000,294.833 51.075,294.833 51.250 C 294.833 51.387,294.946 51.500,295.083 51.500 C 295.221 51.500,295.333 51.615,295.333 51.755 C 295.333 51.896,295.459 52.059,295.612 52.117 C 295.968 52.254,296.500 52.783,296.500 53.000 C 296.500 53.092,296.612 53.167,296.750 53.167 C 296.887 53.167,297.000 53.282,297.000 53.422 C 297.000 53.562,297.112 53.720,297.250 53.773 C 297.387 53.826,297.500 53.973,297.500 54.101 C 297.500 54.229,297.650 54.333,297.833 54.333 C 298.093 54.333,298.167 54.444,298.167 54.839 C 298.167 55.134,298.271 55.384,298.417 55.440 C 298.559 55.494,298.667 55.743,298.667 56.018 C 298.667 56.335,298.752 56.500,298.917 56.500 C 299.130 56.500,299.167 56.954,299.167 59.583 C 299.167 62.213,299.130 62.667,298.917 62.667 C 298.742 62.667,298.667 62.843,298.667 63.250 C 298.667 63.657,298.591 63.833,298.417 63.833 C 298.250 63.833,298.167 64.000,298.167 64.333 C 298.167 64.671,298.084 64.833,297.911 64.833 C 297.771 64.833,297.606 64.965,297.545 65.125 C 297.485 65.285,297.224 65.602,296.967 65.829 C 296.710 66.055,296.500 66.412,296.500 66.620 C 296.500 66.889,296.402 67.000,296.167 67.000 C 295.983 67.000,295.683 67.150,295.500 67.333 C 295.317 67.517,295.092 67.667,295.000 67.667 C 294.908 67.667,294.833 67.779,294.833 67.917 C 294.833 68.084,294.666 68.167,294.328 68.167 C 294.033 68.167,293.783 68.271,293.727 68.417 C 293.671 68.562,293.422 68.667,293.133 68.667 C 292.776 68.667,292.611 68.761,292.548 69.000 C 292.436 69.429,288.167 69.529,288.167 69.103 C 288.167 68.850,287.672 68.672,286.958 68.669 C 286.663 68.667,286.500 68.578,286.500 68.417 C 286.500 68.279,286.358 68.167,286.184 68.167 C 286.011 68.167,285.826 68.054,285.773 67.917 C 285.720 67.779,285.487 67.667,285.255 67.667 C 285.023 67.667,284.833 67.583,284.833 67.482 C 284.833 67.226,284.129 66.506,283.875 66.503 C 283.760 66.501,283.667 66.387,283.667 66.250 C 283.667 66.112,283.554 66.000,283.417 66.000 C 283.279 66.000,283.167 65.885,283.167 65.745 C 283.167 65.604,283.054 65.446,282.917 65.394 C 282.779 65.341,282.667 65.111,282.667 64.883 C 282.667 64.609,282.554 64.439,282.333 64.382 C 282.083 64.316,282.000 64.154,282.000 63.731 C 282.000 63.340,281.923 63.167,281.750 63.167 C 281.561 63.167,281.500 62.963,281.500 62.333 C 281.500 61.704,281.439 61.500,281.250 61.500 C 281.045 61.500,281.000 61.206,281.000 59.851 C 281.000 58.539,281.051 58.183,281.250 58.106 C 281.434 58.036,281.500 57.745,281.500 57.005 C 281.500 56.223,281.555 56.000,281.750 56.000 C 281.925 56.000,282.000 55.824,282.000 55.417 C 282.000 55.046,282.080 54.833,282.219 54.833 C 282.517 54.833,283.167 53.925,283.167 53.507 C 283.167 53.316,283.276 53.167,283.417 53.167 C 283.554 53.167,283.667 53.054,283.667 52.917 C 283.667 52.779,283.782 52.667,283.922 52.667 C 284.062 52.667,284.220 52.554,284.273 52.417 C 284.326 52.279,284.473 52.167,284.601 52.167 C 284.729 52.167,284.833 52.017,284.833 51.833 C 284.833 51.574,284.944 51.500,285.333 51.500 C 285.667 51.500,285.833 51.417,285.833 51.250 C 285.833 51.083,286.001 51.000,286.339 51.000 C 286.634 51.000,286.884 50.896,286.940 50.750 C 287.002 50.589,287.259 50.500,287.664 50.500 C 288.019 50.500,288.383 50.391,288.500 50.250 C 288.659 50.059,289.092 50.000,290.336 50.000 C 291.630 50.000,291.984 50.051,292.060 50.250 M55.347 75.348 C 55.609 75.615,55.900 75.833,55.994 75.833 C 56.089 75.833,56.167 75.946,56.167 76.083 C 56.167 76.221,56.279 76.333,56.417 76.333 C 56.623 76.333,56.667 76.639,56.667 78.083 C 56.667 79.528,56.623 79.833,56.417 79.833 C 56.250 79.833,56.167 80.000,56.167 80.333 C 56.167 80.671,56.084 80.833,55.911 80.833 C 55.771 80.833,55.613 80.946,55.560 81.083 C 55.508 81.221,55.304 81.334,55.107 81.336 C 54.487 81.340,54.000 81.531,54.000 81.769 C 54.000 82.112,53.382 82.048,53.000 81.667 C 52.815 81.481,52.444 81.333,52.167 81.333 C 51.833 81.333,51.667 81.250,51.667 81.083 C 51.667 80.946,51.564 80.833,51.438 80.833 C 51.311 80.833,51.163 80.608,51.108 80.333 C 51.050 80.040,50.903 79.833,50.754 79.833 C 50.310 79.833,50.386 76.402,50.833 76.285 C 51.059 76.226,51.167 76.058,51.167 75.766 C 51.167 75.450,51.253 75.333,51.488 75.333 C 51.665 75.333,51.915 75.228,52.044 75.098 C 52.656 74.487,54.654 74.638,55.347 75.348 " stroke="none" fill="#8cb45c" fill-rule="evenodd"></path></g></svg>